<svg width="21" height="20" viewBox="0 0 21 20" fill="none" xmlns="http://www.w3.org/2000/svg">
<mask id="path-1-inside-1_568_1775" fill="white">
<path d="M5.5 7.5L10.5 12.5L15.5 7.5"/>
</mask>
<path d="M6.56066 6.43934C5.97487 5.85355 5.02513 5.85355 4.43934 6.43934C3.85355 7.02513 3.85355 7.97487 4.43934 8.56066L6.56066 6.43934ZM10.5 12.5L9.43934 13.5607C10.0251 14.1464 10.9749 14.1464 11.5607 13.5607L10.5 12.5ZM16.5607 8.56066C17.1464 7.97487 17.1464 7.02513 16.5607 6.43934C15.9749 5.85355 15.0251 5.85355 14.4393 6.43934L16.5607 8.56066ZM4.43934 8.56066L9.43934 13.5607L11.5607 11.4393L6.56066 6.43934L4.43934 8.56066ZM11.5607 13.5607L16.5607 8.56066L14.4393 6.43934L9.43934 11.4393L11.5607 13.5607Z" fill="#292929" mask="url(#path-1-inside-1_568_1775)"/>
</svg>
