<svg width="243" height="40" viewBox="0 0 243 40" fill="none" xmlns="http://www.w3.org/2000/svg">
<rect width="151" height="28" transform="translate(0 6)" fill="#04248C"/>
<path d="M70.5856 17.1861C70.06 17.1861 69.6067 17.0701 69.2255 16.8381C68.8467 16.6037 68.5543 16.277 68.3484 15.858C68.1448 15.4366 68.043 14.9465 68.043 14.3878C68.043 13.8291 68.1448 13.3366 68.3484 12.9105C68.5543 12.482 68.8408 12.1482 69.2077 11.9091C69.5771 11.6676 70.0079 11.5469 70.5004 11.5469C70.7844 11.5469 71.065 11.5942 71.342 11.6889C71.619 11.7836 71.8711 11.9375 72.0984 12.1506C72.3256 12.3613 72.5067 12.6406 72.6417 12.9886C72.7766 13.3366 72.8441 13.7652 72.8441 14.2741V14.6293H68.6396V13.9048H71.9918C71.9918 13.5971 71.9303 13.3224 71.8072 13.081C71.6864 12.8395 71.5136 12.6489 71.2887 12.5092C71.0662 12.3696 70.8034 12.2997 70.5004 12.2997C70.1665 12.2997 69.8777 12.3826 69.6339 12.5483C69.3924 12.7116 69.2066 12.9247 69.0763 13.1875C68.9461 13.4503 68.881 13.732 68.881 14.0327V14.5156C68.881 14.9276 68.9521 15.2768 69.0941 15.5632C69.2385 15.8473 69.4386 16.0639 69.6942 16.2131C69.9499 16.3598 70.247 16.4332 70.5856 16.4332C70.8058 16.4332 71.0046 16.4025 71.1822 16.3409C71.3621 16.277 71.5172 16.1823 71.6474 16.0568C71.7776 15.929 71.8782 15.7704 71.9492 15.581L72.7589 15.8082C72.6736 16.0829 72.5304 16.3243 72.3292 16.5327C72.128 16.7386 71.8794 16.8996 71.5835 17.0156C71.2875 17.1293 70.9549 17.1861 70.5856 17.1861Z" fill="white"/>
<path d="M66.6633 9.80078V17.0735H65.8252V9.80078H66.6633Z" fill="white"/>
<path d="M61.6958 17.2003C61.3501 17.2003 61.0364 17.1352 60.7547 17.005C60.473 16.8724 60.2493 16.6818 60.0835 16.4332C59.9178 16.1823 59.835 15.8793 59.835 15.5241C59.835 15.2116 59.8965 14.9583 60.0196 14.7642C60.1427 14.5677 60.3073 14.4138 60.5132 14.3026C60.7192 14.1913 60.9465 14.1084 61.195 14.054C61.446 13.9972 61.6981 13.9522 61.9514 13.919C62.2829 13.8764 62.5516 13.8445 62.7575 13.8232C62.9659 13.7995 63.1174 13.7604 63.2121 13.706C63.3092 13.6515 63.3577 13.5568 63.3577 13.4219V13.3935C63.3577 13.0431 63.2618 12.7708 63.07 12.5767C62.8807 12.3826 62.593 12.2855 62.2071 12.2855C61.807 12.2855 61.4933 12.3731 61.2661 12.5483C61.0388 12.7235 60.879 12.9105 60.7867 13.1094L59.9912 12.8253C60.1333 12.4938 60.3226 12.2358 60.5594 12.0511C60.7985 11.8641 61.0589 11.7339 61.3406 11.6605C61.6247 11.5848 61.9041 11.5469 62.1787 11.5469C62.3539 11.5469 62.5551 11.5682 62.7824 11.6108C63.012 11.651 63.2334 11.7351 63.4465 11.8629C63.6619 11.9908 63.8406 12.1837 63.9827 12.4418C64.1247 12.6998 64.1958 13.0455 64.1958 13.4787V17.0724H63.3577V16.3338H63.3151C63.2583 16.4522 63.1636 16.5788 63.031 16.7138C62.8984 16.8487 62.722 16.9635 62.5019 17.0582C62.2817 17.1529 62.013 17.2003 61.6958 17.2003ZM61.8236 16.4474C62.155 16.4474 62.4344 16.3823 62.6617 16.2521C62.8913 16.1219 63.0641 15.9538 63.1801 15.7479C63.2985 15.5419 63.3577 15.3253 63.3577 15.098V14.331C63.3222 14.3736 63.2441 14.4126 63.1233 14.4482C63.0049 14.4813 62.8676 14.5109 62.7114 14.5369C62.5575 14.5606 62.4072 14.5819 62.2604 14.6009C62.116 14.6174 61.9988 14.6316 61.9088 14.6435C61.691 14.6719 61.4874 14.718 61.298 14.782C61.111 14.8435 60.9595 14.937 60.8435 15.0625C60.7298 15.1856 60.673 15.3537 60.673 15.5668C60.673 15.858 60.7807 16.0781 60.9962 16.2273C61.214 16.3741 61.4898 16.4474 61.8236 16.4474Z" fill="white"/>
<path d="M58.6295 12.8395L57.8767 13.0526C57.8293 12.9271 57.7595 12.8052 57.6672 12.6868C57.5772 12.5661 57.4541 12.4666 57.2979 12.3885C57.1416 12.3104 56.9416 12.2713 56.6977 12.2713C56.3639 12.2713 56.0857 12.3482 55.8632 12.5021C55.643 12.6536 55.5329 12.8466 55.5329 13.081C55.5329 13.2893 55.6087 13.4538 55.7602 13.5746C55.9117 13.6953 56.1485 13.7959 56.4704 13.8764L57.2801 14.0753C57.7678 14.1937 58.1312 14.3748 58.3703 14.6186C58.6094 14.8601 58.729 15.1714 58.729 15.5526C58.729 15.8651 58.639 16.1444 58.4591 16.3906C58.2815 16.6368 58.0329 16.831 57.7133 16.973C57.3937 17.1151 57.022 17.1861 56.5983 17.1861C56.0419 17.1861 55.5815 17.0653 55.2169 16.8239C54.8523 16.5824 54.6215 16.2296 54.5244 15.7656L55.3199 15.5668C55.3956 15.8603 55.5389 16.0805 55.7496 16.2273C55.9626 16.3741 56.2408 16.4474 56.5841 16.4474C56.9747 16.4474 57.2848 16.3646 57.5145 16.1989C57.7465 16.0308 57.8625 15.8295 57.8625 15.5952C57.8625 15.4058 57.7962 15.2472 57.6636 15.1193C57.531 14.9891 57.3274 14.892 57.0528 14.8281L56.1437 14.6151C55.6442 14.4967 55.2773 14.3132 55.0429 14.0646C54.8109 13.8137 54.6949 13.5 54.6949 13.1236C54.6949 12.8158 54.7813 12.5436 54.9541 12.3068C55.1293 12.0701 55.3672 11.8842 55.6679 11.7493C55.9709 11.6143 56.3142 11.5469 56.6977 11.5469C57.2375 11.5469 57.6612 11.6652 57.969 11.902C58.2791 12.1387 58.4993 12.4512 58.6295 12.8395Z" fill="white"/>
<path d="M47.7241 17.2003C47.3784 17.2003 47.0647 17.1352 46.783 17.005C46.5013 16.8724 46.2776 16.6818 46.1119 16.4332C45.9461 16.1823 45.8633 15.8793 45.8633 15.5241C45.8633 15.2116 45.9248 14.9583 46.0479 14.7642C46.171 14.5677 46.3356 14.4138 46.5415 14.3026C46.7475 14.1913 46.9748 14.1084 47.2234 14.054C47.4743 13.9972 47.7264 13.9522 47.9798 13.919C48.3112 13.8764 48.5799 13.8445 48.7859 13.8232C48.9942 13.7995 49.1457 13.7604 49.2404 13.706C49.3375 13.6515 49.386 13.5568 49.386 13.4219V13.3935C49.386 13.0431 49.2901 12.7708 49.0984 12.5767C48.909 12.3826 48.6213 12.2855 48.2354 12.2855C47.8353 12.2855 47.5217 12.3731 47.2944 12.5483C47.0671 12.7235 46.9073 12.9105 46.815 13.1094L46.0195 12.8253C46.1616 12.4938 46.351 12.2358 46.5877 12.0511C46.8268 11.8641 47.0872 11.7339 47.369 11.6605C47.6531 11.5848 47.9324 11.5469 48.207 11.5469C48.3822 11.5469 48.5835 11.5682 48.8107 11.6108C49.0404 11.651 49.2617 11.7351 49.4748 11.8629C49.6902 11.9908 49.869 12.1837 50.011 12.4418C50.1531 12.6998 50.2241 13.0455 50.2241 13.4787V17.0724H49.386V16.3338H49.3434C49.2866 16.4522 49.1919 16.5788 49.0593 16.7138C48.9267 16.8487 48.7504 16.9635 48.5302 17.0582C48.31 17.1529 48.0413 17.2003 47.7241 17.2003ZM47.8519 16.4474C48.1834 16.4474 48.4627 16.3823 48.69 16.2521C48.9196 16.1219 49.0924 15.9538 49.2085 15.7479C49.3268 15.5419 49.386 15.3253 49.386 15.098V14.331C49.3505 14.3736 49.2724 14.4126 49.1516 14.4482C49.0333 14.4813 48.896 14.5109 48.7397 14.5369C48.5858 14.5606 48.4355 14.5819 48.2887 14.6009C48.1443 14.6174 48.0271 14.6316 47.9371 14.6435C47.7193 14.6719 47.5157 14.718 47.3263 14.782C47.1393 14.8435 46.9878 14.937 46.8718 15.0625C46.7582 15.1856 46.7013 15.3537 46.7013 15.5668C46.7013 15.858 46.8091 16.0781 47.0245 16.2273C47.2423 16.3741 47.5181 16.4474 47.8519 16.4474Z" fill="white"/>
<path d="M42.1263 19.2315C41.7215 19.2315 41.3735 19.1794 41.0823 19.0753C40.7911 18.9735 40.5484 18.8385 40.3543 18.6705C40.1626 18.5047 40.0099 18.3272 39.8962 18.1378L40.5638 17.669C40.6396 17.7685 40.7355 17.8821 40.8515 18.0099C40.9675 18.1402 41.1261 18.2526 41.3273 18.3473C41.5309 18.4444 41.7973 18.4929 42.1263 18.4929C42.5667 18.4929 42.9301 18.3864 43.2165 18.1733C43.503 17.9602 43.6462 17.6264 43.6462 17.1719V16.0639H43.5752C43.5136 16.1634 43.426 16.2865 43.3124 16.4332C43.2011 16.5777 43.0402 16.7067 42.8295 16.8203C42.6211 16.9316 42.3394 16.9872 41.9843 16.9872C41.5439 16.9872 41.1486 16.883 40.7982 16.6747C40.4502 16.4664 40.1744 16.1634 39.9708 15.7656C39.7696 15.3679 39.6689 14.8849 39.6689 14.3168C39.6689 13.758 39.7672 13.2715 39.9637 12.8572C40.1602 12.4406 40.4336 12.1186 40.784 11.8913C41.1344 11.6617 41.5392 11.5469 41.9985 11.5469C42.3536 11.5469 42.6353 11.6061 42.8437 11.7244C43.0544 11.8404 43.2153 11.973 43.3266 12.1222C43.4403 12.2689 43.5278 12.3897 43.5894 12.4844H43.6746V11.6179H44.4843V17.2287C44.4843 17.6974 44.3778 18.0786 44.1647 18.3722C43.954 18.6681 43.6699 18.8847 43.3124 19.022C42.9573 19.1617 42.5619 19.2315 42.1263 19.2315ZM42.0979 16.2344C42.4341 16.2344 42.7182 16.1574 42.9502 16.0036C43.1822 15.8497 43.3586 15.6283 43.4793 15.3395C43.6001 15.0507 43.6604 14.705 43.6604 14.3026C43.6604 13.9096 43.6012 13.5627 43.4829 13.2621C43.3645 12.9614 43.1893 12.7259 42.9573 12.5554C42.7253 12.3849 42.4388 12.2997 42.0979 12.2997C41.7428 12.2997 41.4469 12.3897 41.2101 12.5696C40.9758 12.7495 40.7994 12.991 40.681 13.294C40.565 13.5971 40.507 13.9332 40.507 14.3026C40.507 14.6813 40.5662 15.0163 40.6846 15.3075C40.8053 15.5964 40.9829 15.8236 41.2172 15.9893C41.454 16.1527 41.7475 16.2344 42.0979 16.2344Z" fill="white"/>
<path d="M36.2916 17.1861C35.7661 17.1861 35.3127 17.0701 34.9316 16.8381C34.5528 16.6037 34.2604 16.277 34.0544 15.858C33.8508 15.4366 33.749 14.9465 33.749 14.3878C33.749 13.8291 33.8508 13.3366 34.0544 12.9105C34.2604 12.482 34.5468 12.1482 34.9138 11.9091C35.2831 11.6676 35.714 11.5469 36.2064 11.5469C36.4905 11.5469 36.771 11.5942 37.048 11.6889C37.325 11.7836 37.5771 11.9375 37.8044 12.1506C38.0317 12.3613 38.2128 12.6406 38.3477 12.9886C38.4827 13.3366 38.5502 13.7652 38.5502 14.2741V14.6293H34.3456V13.9048H37.6979C37.6979 13.5971 37.6363 13.3224 37.5132 13.081C37.3925 12.8395 37.2197 12.6489 36.9948 12.5092C36.7722 12.3696 36.5094 12.2997 36.2064 12.2997C35.8726 12.2997 35.5838 12.3826 35.3399 12.5483C35.0985 12.7116 34.9126 12.9247 34.7824 13.1875C34.6522 13.4503 34.5871 13.732 34.5871 14.0327V14.5156C34.5871 14.9276 34.6581 15.2768 34.8002 15.5632C34.9446 15.8473 35.1446 16.0639 35.4003 16.2131C35.656 16.3598 35.9531 16.4332 36.2916 16.4332C36.5118 16.4332 36.7107 16.4025 36.8882 16.3409C37.0682 16.277 37.2232 16.1823 37.3534 16.0568C37.4836 15.929 37.5843 15.7704 37.6553 15.581L38.4649 15.8082C38.3797 16.0829 38.2365 16.3243 38.0352 16.5327C37.834 16.7386 37.5854 16.8996 37.2895 17.0156C36.9936 17.1293 36.661 17.1861 36.2916 17.1861Z" fill="white"/>
<path d="M25.1221 9.80078H26.1732L28.6448 15.8377H28.73L31.2016 9.80078H32.2528V17.0735H31.4289V11.5479H31.3579L29.0851 17.0735H28.2897L26.017 11.5479H25.9459V17.0735H25.1221V9.80078Z" fill="white"/>
<path d="M113.256 24.1669C113.196 23.9595 113.112 23.7763 113.004 23.6172C112.896 23.4553 112.764 23.3189 112.608 23.2081C112.455 23.0945 112.278 23.0078 112.08 22.9482C111.884 22.8885 111.666 22.8587 111.428 22.8587C110.982 22.8587 110.59 22.9695 110.252 23.1911C109.916 23.4126 109.655 23.7351 109.467 24.1584C109.28 24.5788 109.186 25.093 109.186 25.701C109.186 26.3089 109.278 26.826 109.463 27.2521C109.648 27.6783 109.909 28.0036 110.247 28.228C110.585 28.4496 110.984 28.5604 111.445 28.5604C111.862 28.5604 112.219 28.4865 112.514 28.3388C112.813 28.1882 113.04 27.9766 113.196 27.7038C113.355 27.4311 113.435 27.1087 113.435 26.7365L113.81 26.7919H111.56V25.4027H115.212V26.5021C115.212 27.2692 115.05 27.9283 114.726 28.4794C114.402 29.0277 113.956 29.451 113.388 29.7493C112.82 30.0447 112.169 30.1925 111.436 30.1925C110.618 30.1925 109.899 30.0121 109.28 29.6513C108.661 29.2876 108.178 28.772 107.831 28.1044C107.487 27.4339 107.315 26.6385 107.315 25.718C107.315 25.0107 107.418 24.38 107.622 23.826C107.83 23.2692 108.119 22.7976 108.492 22.4112C108.864 22.0249 109.297 21.7308 109.791 21.5291C110.286 21.3274 110.821 21.2266 111.398 21.2266C111.892 21.2266 112.352 21.299 112.779 21.4439C113.205 21.5859 113.582 21.7876 113.912 22.049C114.244 22.3104 114.516 22.6214 114.726 22.9822C114.936 23.3402 115.071 23.7351 115.131 24.1669H113.256Z" fill="white"/>
<path d="M105.845 21.3477V30.0749H104.251L100.454 24.582H100.39V30.0749H98.5449V21.3477H100.164L103.931 26.8363H104.008V21.3477H105.845Z" fill="white"/>
<path d="M96.9272 21.3477V30.0749H95.082V21.3477H96.9272Z" fill="white"/>
<path d="M87.2119 30.0749V21.3477H90.6551C91.317 21.3477 91.8809 21.4741 92.3469 21.7269C92.8128 21.9769 93.1679 22.3249 93.4122 22.771C93.6594 23.2141 93.7829 23.7255 93.7829 24.305C93.7829 24.8846 93.6579 25.396 93.4079 25.8391C93.1579 26.2823 92.7957 26.6275 92.3213 26.8746C91.8497 27.1218 91.2787 27.2454 90.6082 27.2454H88.4136V25.7667H90.3099C90.665 25.7667 90.9577 25.7056 91.1878 25.5835C91.4207 25.4585 91.594 25.2866 91.7077 25.0678C91.8241 24.8462 91.8824 24.592 91.8824 24.305C91.8824 24.0153 91.8241 23.7624 91.7077 23.5465C91.594 23.3278 91.4207 23.1587 91.1878 23.0394C90.9548 22.9173 90.6594 22.8562 90.3014 22.8562H89.0571V30.0749H87.2119Z" fill="white"/>
<path d="M79.3428 30.0749V21.3477H82.786C83.4479 21.3477 84.0118 21.4741 84.4777 21.7269C84.9436 21.9769 85.2987 22.3249 85.5431 22.771C85.7902 23.2141 85.9138 23.7255 85.9138 24.305C85.9138 24.8846 85.7888 25.396 85.5388 25.8391C85.2888 26.2823 84.9266 26.6275 84.4521 26.8746C83.9806 27.1218 83.4095 27.2454 82.7391 27.2454H80.5445V25.7667H82.4408C82.7959 25.7667 83.0885 25.7056 83.3186 25.5835C83.5516 25.4585 83.7249 25.2866 83.8385 25.0678C83.955 24.8462 84.0132 24.592 84.0132 24.305C84.0132 24.0153 83.955 23.7624 83.8385 23.5465C83.7249 23.3278 83.5516 23.1587 83.3186 23.0394C83.0857 22.9173 82.7902 22.8562 82.4323 22.8562H81.1879V30.0749H79.3428Z" fill="white"/>
<path d="M77.7251 21.3477V30.0749H75.8799V21.3477H77.7251Z" fill="white"/>
<path d="M66.8262 30.0749V21.3477H68.6713V24.9485H72.4171V21.3477H74.258V30.0749H72.4171V26.4698H68.6713V30.0749H66.8262Z" fill="white"/>
<path d="M63.5977 23.8558C63.5636 23.5121 63.4173 23.245 63.1587 23.0547C62.9002 22.8643 62.5494 22.7692 62.1062 22.7692C61.805 22.7692 61.5508 22.8118 61.3434 22.897C61.136 22.9794 60.9769 23.0945 60.8661 23.2422C60.7582 23.3899 60.7042 23.5575 60.7042 23.745C60.6985 23.9013 60.7312 24.0376 60.8022 24.1541C60.8761 24.2706 60.9769 24.3714 61.1048 24.4567C61.2326 24.5391 61.3803 24.6115 61.5479 24.674C61.7156 24.7337 61.8945 24.7848 62.0849 24.8274L62.869 25.0149C63.2496 25.1001 63.5991 25.2138 63.9173 25.3558C64.2354 25.4979 64.511 25.6726 64.744 25.88C64.9769 26.0874 65.1573 26.3317 65.2852 26.6129C65.4158 26.8942 65.4826 27.2166 65.4854 27.5803C65.4826 28.1143 65.3462 28.5774 65.0764 28.9695C64.8093 29.3587 64.4229 29.6612 63.9173 29.8771C63.4144 30.0902 62.8079 30.1967 62.0977 30.1967C61.3931 30.1967 60.7795 30.0888 60.2567 29.8729C59.7369 29.657 59.3306 29.3374 59.038 28.9141C58.7482 28.4879 58.5962 27.9609 58.582 27.3331H60.3675C60.3874 27.6257 60.4712 27.87 60.619 28.0661C60.7695 28.2592 60.9698 28.4055 61.2198 28.505C61.4727 28.6016 61.7582 28.6499 62.0764 28.6499C62.3889 28.6499 62.6602 28.6044 62.8903 28.5135C63.1232 28.4226 63.3036 28.2962 63.4315 28.1342C63.5593 27.9723 63.6232 27.7862 63.6232 27.576C63.6232 27.38 63.565 27.2152 63.4485 27.0817C63.3349 26.9482 63.1673 26.8345 62.9457 26.7408C62.7269 26.647 62.4585 26.5618 62.1403 26.4851L61.19 26.2464C60.4542 26.0675 59.8732 25.7876 59.4471 25.407C59.021 25.0263 58.8093 24.5135 58.8121 23.8686C58.8093 23.3402 58.9499 22.8786 59.234 22.4837C59.521 22.0888 59.9144 21.7805 60.4144 21.5589C60.9144 21.3374 61.4826 21.2266 62.119 21.2266C62.7667 21.2266 63.332 21.3374 63.815 21.5589C64.3008 21.7805 64.6786 22.0888 64.9485 22.4837C65.2184 22.8786 65.3576 23.3359 65.3661 23.8558H63.5977Z" fill="white"/>
<path d="M47.5381 22.869V21.3477H54.7057V22.869H52.0338V30.0749H50.21V22.869H47.5381Z" fill="white"/>
<path d="M44.6416 23.8558C44.6075 23.5121 44.4612 23.245 44.2027 23.0547C43.9442 22.8643 43.5933 22.7692 43.1501 22.7692C42.849 22.7692 42.5947 22.8118 42.3873 22.897C42.18 22.9794 42.0209 23.0945 41.9101 23.2422C41.8021 23.3899 41.7481 23.5575 41.7481 23.745C41.7425 23.9013 41.7751 24.0376 41.8461 24.1541C41.92 24.2706 42.0209 24.3714 42.1487 24.4567C42.2765 24.5391 42.4243 24.6115 42.5919 24.674C42.7595 24.7337 42.9385 24.7848 43.1288 24.8274L43.9129 25.0149C44.2936 25.1001 44.643 25.2138 44.9612 25.3558C45.2794 25.4979 45.555 25.6726 45.7879 25.88C46.0209 26.0874 46.2013 26.3317 46.3291 26.6129C46.4598 26.8942 46.5265 27.2166 46.5294 27.5803C46.5265 28.1143 46.3902 28.5774 46.1203 28.9695C45.8532 29.3587 45.4669 29.6612 44.9612 29.8771C44.4584 30.0902 43.8518 30.1967 43.1416 30.1967C42.4371 30.1967 41.8234 30.0888 41.3007 29.8729C40.7808 29.657 40.3746 29.3374 40.0819 28.9141C39.7922 28.4879 39.6402 27.9609 39.626 27.3331H41.4115C41.4314 27.6257 41.5152 27.87 41.6629 28.0661C41.8135 28.2592 42.0138 28.4055 42.2638 28.505C42.5166 28.6016 42.8021 28.6499 43.1203 28.6499C43.4328 28.6499 43.7041 28.6044 43.9342 28.5135C44.1672 28.4226 44.3476 28.2962 44.4754 28.1342C44.6032 27.9723 44.6672 27.7862 44.6672 27.576C44.6672 27.38 44.6089 27.2152 44.4925 27.0817C44.3788 26.9482 44.2112 26.8345 43.9896 26.7408C43.7709 26.647 43.5024 26.5618 43.1842 26.4851L42.2339 26.2464C41.4981 26.0675 40.9172 25.7876 40.491 25.407C40.0649 25.0263 39.8532 24.5135 39.8561 23.8686C39.8532 23.3402 39.9939 22.8786 40.278 22.4837C40.5649 22.0888 40.9584 21.7805 41.4584 21.5589C41.9584 21.3374 42.5265 21.2266 43.1629 21.2266C43.8106 21.2266 44.376 21.3374 44.8589 21.5589C45.3447 21.7805 45.7226 22.0888 45.9925 22.4837C46.2623 22.8786 46.4015 23.3359 46.4101 23.8558H44.6416Z" fill="white"/>
<path d="M32.5339 30.0749H30.5566L33.5694 21.3477H35.9473L38.9558 30.0749H36.9785L34.7924 23.342H34.7243L32.5339 30.0749ZM32.4103 26.6445H37.0808V28.0849H32.4103V26.6445Z" fill="white"/>
<path d="M25 30.0749V21.3477H30.7784V22.869H26.8452V24.9485H30.3949V26.4698H26.8452V30.0749H25Z" fill="white"/>
<path d="M143.35 1H242.212L228.198 36H123.212L143.35 1Z" fill="#FFF2E6"/>
<path d="M158.817 19.6813C155.985 19.6813 154.212 17.9193 154.212 15.1146C154.212 12.3458 156.087 10.524 158.906 10.524C161.266 10.524 162.962 11.7945 163.256 13.7842H161.074C160.794 12.8972 159.99 12.3938 158.855 12.3938C157.324 12.3938 156.393 13.4126 156.393 15.1026C156.393 16.7687 157.337 17.8115 158.855 17.8115C160.016 17.8115 160.87 17.2721 161.125 16.3971H163.268C162.937 18.3748 161.177 19.6813 158.817 19.6813Z" fill="#04248C"/>
<path d="M166.21 19.6933C164.858 19.6933 164.016 18.9501 164.016 17.7755C164.016 16.6728 164.845 15.9896 166.375 15.8817L168.161 15.7499V15.654C168.161 15.0667 167.779 14.755 167.077 14.755C166.248 14.755 165.801 15.0547 165.801 15.5941H164.169C164.169 14.2396 165.355 13.3527 167.179 13.3527C169.029 13.3527 170.075 14.3235 170.075 16.0375V19.5374H168.34L168.212 18.7464C168.008 19.2977 167.166 19.6933 166.21 19.6933ZM166.898 18.3269C167.651 18.3269 168.174 17.9793 168.174 17.2961V16.9724L167.179 17.0563C166.324 17.1283 166.018 17.3081 166.018 17.6916C166.018 18.1231 166.299 18.3269 166.898 18.3269Z" fill="#04248C"/>
<path d="M171.024 17.6437H172.887C172.912 18.0632 173.244 18.3149 173.843 18.3149C174.456 18.3149 174.736 18.1111 174.736 17.7995C174.736 17.6197 174.634 17.4279 174.162 17.332L172.989 17.0923C171.815 16.8526 171.241 16.3731 171.241 15.3184C171.241 14.0718 172.376 13.3527 173.907 13.3527C175.387 13.3527 176.42 14.1677 176.42 15.3783H174.558C174.558 14.9708 174.29 14.6951 173.818 14.6951C173.371 14.6951 173.091 14.9109 173.091 15.2345C173.091 15.5102 173.333 15.666 173.78 15.7619L174.966 16.0016C176.012 16.2173 176.586 16.6728 176.586 17.6317C176.586 18.9142 175.425 19.6933 173.767 19.6933C172.083 19.6933 171.024 18.8542 171.024 17.6437Z" fill="#04248C"/>
<path d="M179.577 19.5374H177.612V10.5H179.589V14.1677C179.985 13.6523 180.712 13.3527 181.541 13.3527C183.059 13.3527 183.939 14.2636 183.939 15.8338V19.5374H181.975V16.2773C181.975 15.5221 181.528 15.0307 180.852 15.0307C180.074 15.0307 179.577 15.5101 179.577 16.2533V19.5374Z" fill="#04248C"/>
<path d="M154.735 29.3442V20.4745H158.664C160.564 20.4745 161.712 21.4094 161.712 22.9317C161.712 23.8786 161.253 24.5738 160.398 24.9213C161.33 25.209 161.827 25.8922 161.827 26.899C161.827 28.4692 160.705 29.3442 158.664 29.3442H154.735ZM158.447 22.1765H156.801V24.1063H158.447C159.187 24.1063 159.595 23.7587 159.595 23.1234C159.595 22.5002 159.199 22.1765 158.447 22.1765ZM158.549 25.7364H156.801V27.6422H158.549C159.314 27.6422 159.71 27.3185 159.71 26.6593C159.71 26.06 159.301 25.7364 158.549 25.7364Z" fill="#04248C"/>
<path d="M164.902 29.5C163.55 29.5 162.708 28.7569 162.708 27.5822C162.708 26.4795 163.537 25.7963 165.068 25.6884L166.853 25.5566V25.4607C166.853 24.8734 166.471 24.5618 165.769 24.5618C164.94 24.5618 164.493 24.8614 164.493 25.4008H162.861C162.861 24.0464 164.047 23.1594 165.871 23.1594C167.721 23.1594 168.767 24.1303 168.767 25.8443V29.3442H167.032L166.904 28.5531C166.7 29.1045 165.858 29.5 164.902 29.5ZM165.59 28.1336C166.343 28.1336 166.866 27.786 166.866 27.1028V26.7792L165.871 26.8631C165.016 26.935 164.71 27.1148 164.71 27.4983C164.71 27.9298 164.991 28.1336 165.59 28.1336Z" fill="#04248C"/>
<path d="M169.831 26.3237C169.831 24.4779 171.183 23.1594 173.097 23.1594C174.984 23.1594 176.235 24.1303 176.362 25.7004H174.385C174.245 25.1011 173.849 24.8135 173.173 24.8135C172.344 24.8135 171.808 25.4008 171.808 26.3237C171.808 27.2826 172.306 27.8459 173.148 27.8459C173.836 27.8459 174.257 27.5463 174.385 26.959H176.362C176.235 28.4692 174.933 29.5 173.148 29.5C171.132 29.5 169.831 28.2415 169.831 26.3237Z" fill="#04248C"/>
<path d="M179.402 29.3442H177.438V20.3067H179.402V25.5087L181.469 23.3512H183.93L181.532 25.7244L183.854 29.3442H181.583L180.155 27.1028L179.402 27.8459V29.3442Z" fill="#04248C"/>
<path d="M185.062 15.1789H215.212V29.3442H185.062V15.1789Z" fill="#04248C"/>
<path d="M192.271 21.793L189.236 17.3582H191.697L192.488 18.5208C192.833 19.0242 193.164 19.5636 193.585 20.2947L195.473 17.3582H197.884L194.899 21.793L197.884 26.2278H194.899L194.81 25.3049C194.338 24.5977 194.032 24.0703 193.572 23.2793L190.86 26.0753L187.381 27.7097L192.271 21.793Z" fill="#FCFCFD"/>
<path d="M200.191 26.3695H198.406V22.316H197.304V21.5424H198.406L199.043 20.0823H199.623L200.203 21.4661H201.293V22.316H200.191V26.3695Z" fill="#FCFCFD"/>
<path d="M206.04 20.7796V22.3596H205.472C204.451 22.3596 203.836 22.7846 203.836 23.8633V26.2278H202.051V20.7905H203.732L203.825 21.5969C204.068 21.0629 204.579 20.7034 205.356 20.7034C205.564 20.7034 205.796 20.7252 206.04 20.7796Z" fill="#FCFCFD"/>
<path d="M208.575 26.2278C207.346 26.2278 206.581 25.5522 206.581 24.4844C206.581 23.4819 207.335 22.8608 208.726 22.7628L210.35 22.6429V22.5557C210.35 22.0218 210.002 21.7385 209.364 21.7385C208.61 21.7385 208.204 22.0109 208.204 22.5013H206.72C206.72 21.27 207.798 20.4636 209.457 20.4636C211.138 20.4636 212.089 21.3462 212.089 22.9044L214.118 26.6201L212.089 26.0753L210.396 25.367C210.21 25.8682 209.445 26.2278 208.575 26.2278ZM209.202 24.9856C209.886 24.9856 210.361 24.6696 210.361 24.0485V23.7543L209.457 23.8306C208.68 23.896 208.401 24.0594 208.401 24.4081C208.401 24.8004 208.657 24.9856 209.202 24.9856Z" fill="#FCFCFD"/>
</svg>
