<svg width="175" height="76" viewBox="0 0 175 76" fill="none" xmlns="http://www.w3.org/2000/svg">
<rect y="0.570312" width="175" height="75" rx="10" fill="white"/>
<path d="M114.369 54.293L142.276 54.2727L142.281 45.7747L124.991 45.7796L124.976 23.3106L114.364 23.3155L114.369 54.293Z" fill="#BF1F28"/>
<path d="M46.4811 54.2833C50.0638 54.2987 53.6567 54.2935 57.2394 54.2833L57.2495 32.1741L69.5381 32.1842L69.4925 23.3111C69.0161 23.3212 68.5448 23.2957 68.0787 23.3009C56.7176 23.3262 45.3562 23.3009 34 23.3009V32.1842L46.2479 32.179C46.243 39.1673 46.3342 46.1602 46.2479 53.1532C46.243 53.7411 46.3292 53.8172 46.4811 54.2833Z" fill="#BF1F28"/>
<path d="M85.5922 55.0345C90.229 55.8708 95.6411 55.896 100.019 53.8843C104.778 51.6899 108.203 47.3624 108.487 42.0011H98.7371C98.6259 45.756 95.1242 47.6461 91.7947 47.8894C87.8676 48.1783 84.0314 46.0397 82.7494 42.2087C82.2325 40.6734 82.1364 39.0874 82.2528 37.4656C82.567 33.0013 85.4705 29.7682 89.9705 29.2665C91.881 29.0536 94.1665 29.2766 95.8081 30.3763C97.5009 31.5062 98.413 33.0722 98.7171 35.1194L108.462 35.1144C108.431 33.9488 108.239 32.7377 107.859 31.6279C105.882 25.8005 100.273 22.3798 94.3489 21.7616C90.4874 21.3612 86.3524 21.5284 82.6733 22.8511C78.66 24.2952 75.2091 27.2547 73.5571 31.2631C70.2732 39.2239 72.3003 48.8724 80.2815 53.1546C81.9334 54.0414 83.7375 54.6898 85.5922 55.0345Z" fill="#BF1F28"/>
</svg>
