<svg width="241" height="54" viewBox="0 0 241 54" fill="none" xmlns="http://www.w3.org/2000/svg">
<path d="M90.1507 7.07422H86.2441V29.2344H90.1507V7.07422Z" fill="#00278B"/>
<path d="M143.928 7.07422H140.578V29.2344H144.482H155.205V25.3279H144.482V20.1076H155.205V16.2011H144.482V10.978H155.205V7.07422H143.928Z" fill="#00278B"/>
<path d="M180.761 10.978H187.265V29.2344H191.169V10.978H197.674V7.07422H180.761V10.978Z" fill="#00278B"/>
<path d="M210.881 7.07422H207.147C205.26 7.07635 203.452 7.82659 202.118 9.16035C200.785 10.4941 200.034 12.3025 200.032 14.1887V22.1199C200.034 24.0061 200.785 25.8145 202.118 27.1483C203.452 28.482 205.26 29.2323 207.147 29.2344H210.881C212.767 29.2323 214.576 28.482 215.91 27.1483C217.243 25.8145 217.994 24.0061 217.996 22.1199V14.1887C217.994 12.3025 217.243 10.4941 215.91 9.16035C214.576 7.82659 212.767 7.07635 210.881 7.07422ZM214.092 22.1199C214.088 22.9704 213.749 23.7849 213.148 24.3863C212.546 24.9876 211.732 25.327 210.881 25.3306H207.147C206.294 25.3306 205.476 24.9927 204.872 24.391C204.267 23.7893 203.926 22.9727 203.923 22.1199V14.1887C203.926 13.3359 204.267 12.5193 204.872 11.9176C205.476 11.3159 206.294 10.978 207.147 10.978H210.881C211.732 10.9816 212.546 11.321 213.148 11.9223C213.749 12.5237 214.088 13.3383 214.092 14.1887V22.1199Z" fill="#00278B"/>
<path d="M178.59 13.5903C178.588 11.862 177.901 10.205 176.679 8.98292C175.457 7.76087 173.8 7.07369 172.072 7.07227H159.248V29.2351H163.155V20.1002H167.722L174.014 29.2351H178.759L172.453 20.1002C174.11 20.0017 175.667 19.2747 176.807 18.0674C177.946 16.8602 178.582 15.2637 178.584 13.6037M163.149 16.2152V10.9788H172.069C172.419 10.9676 172.767 11.0268 173.094 11.1529C173.42 11.279 173.718 11.4695 173.97 11.7129C174.221 11.9564 174.421 12.248 174.558 12.5702C174.694 12.8925 174.764 13.2389 174.764 13.5889C174.764 13.9389 174.694 14.2854 174.558 14.6076C174.421 14.9299 174.221 15.2214 173.97 15.4649C173.718 15.7084 173.42 15.8989 173.094 16.025C172.767 16.1511 172.419 16.2103 172.069 16.1991L163.149 16.2152Z" fill="#00278B"/>
<path d="M234.694 20.0868C236.387 19.9895 237.976 19.2356 239.121 17.9856C240.267 16.7355 240.88 15.0878 240.83 13.3927C240.78 11.6977 240.071 10.089 238.853 8.90872C237.636 7.72842 236.006 7.06958 234.31 7.07227H221.486V29.2351H225.39V20.1002H229.958L236.25 29.2351H241L234.694 20.0868ZM225.39 16.2018V10.9788H234.31C234.66 10.9676 235.008 11.0268 235.335 11.1529C235.661 11.279 235.959 11.4695 236.211 11.713C236.462 11.9564 236.662 12.248 236.798 12.5702C236.935 12.8925 237.005 13.2389 237.005 13.5889C237.005 13.9389 236.935 14.2854 236.798 14.6076C236.662 14.9299 236.462 15.2215 236.211 15.4649C235.959 15.7084 235.661 15.8989 235.335 16.025C235.008 16.1511 234.66 16.2103 234.31 16.1991L225.39 16.2018Z" fill="#00278B"/>
<path d="M136.58 7.07422H133.06L127.259 23.3988L121.461 7.07422H117.445H117.308L118.041 9.10807L125.188 29.2344H129.333L136.722 8.43102L137.222 7.07422H137.077H136.58Z" fill="#00278B"/>
<path d="M109.933 23.114L98.5412 7.07422H94.1914V29.2344H98.0979V13.1946L109.492 29.2344H113.839V7.07422H109.933V23.114Z" fill="#00278B"/>
<path d="M99.8178 42.6333L99.8661 42.8214L99.9199 42.6333L102.725 34.8203H103.552L100.232 43.7349H99.5115L96.1934 34.8203H97.0128L99.8178 42.6333Z" fill="#FC7F03"/>
<path d="M109.217 41.2312H105.168L104.249 43.7352H103.459L106.834 34.826H107.551L110.925 43.7406H110.141L109.217 41.2312ZM105.401 40.5944H108.975L107.188 35.7395L105.401 40.5944ZM108.916 34.0442V34.106H108.236L107.207 32.9856L106.183 34.106H105.517V34.02L106.973 32.459H107.438L108.916 34.0442Z" fill="#FC7F03"/>
<path d="M118.87 43.7349H118.117L112.991 36.1073V43.7349H112.233V34.8203H112.991L118.123 42.456V34.8203H118.87V43.7349Z" fill="#FC7F03"/>
<path d="M121.47 43.0981H126.975V43.7349H120.56V43.1653L125.85 35.4571H120.718V34.8203H126.779V35.355L121.47 43.0981Z" fill="#FC7F03"/>
<path d="M133.526 41.2314H129.48L128.561 43.7354H127.771L131.143 34.8262H131.861L135.235 43.7408H134.451L133.526 41.2314ZM129.711 40.5946H133.287L131.501 35.7397L129.711 40.5946Z" fill="#FC7F03"/>
<path d="M139.875 40.0196H137.285V43.7354H136.524V34.8262H139.421C140.372 34.8262 141.114 35.0563 141.648 35.5167C142.104 35.958 142.386 36.5491 142.441 37.1813C142.496 37.8136 142.322 38.4446 141.949 38.9584C141.611 39.3973 141.139 39.715 140.606 39.8638L142.833 43.6602V43.7408H142.027L139.875 40.0196ZM137.285 39.3936H139.593C140.151 39.4194 140.697 39.2266 141.116 38.8563C141.49 38.4718 141.697 37.9555 141.692 37.4193C141.688 36.8831 141.472 36.3703 141.092 35.9922C140.613 35.6184 140.014 35.433 139.407 35.471H137.282L137.285 39.3936Z" fill="#FC7F03"/>
<path d="M149.423 39.4642H145.256V43.0994H150.049V43.7361H144.501V34.8242H150.02V35.4583H145.256V38.8275H149.423V39.4642Z" fill="#FC7F03"/>
<path d="M159.727 41.5433C159.736 41.3211 159.694 41.0997 159.603 40.8965C159.513 40.6933 159.377 40.5138 159.205 40.3719C158.858 40.0835 158.223 39.8103 157.301 39.5524C156.585 39.3828 155.902 39.0959 155.28 38.7034C155.006 38.519 154.781 38.2714 154.623 37.9816C154.466 37.6918 154.38 37.3682 154.374 37.0383C154.367 36.7083 154.441 36.3817 154.587 36.0861C154.734 35.7904 154.949 35.5344 155.216 35.3396C155.841 34.8936 156.597 34.6686 157.365 34.7002C157.915 34.691 158.459 34.8086 158.956 35.0441C159.396 35.255 159.769 35.5855 160.03 35.9979C160.287 36.4064 160.42 36.8803 160.414 37.3627H159.673C159.683 37.087 159.633 36.8125 159.525 36.5585C159.417 36.3045 159.255 36.0773 159.05 35.8931C158.581 35.5029 157.982 35.3043 157.373 35.3369C156.795 35.3066 156.223 35.4671 155.745 35.7937C155.554 35.9277 155.399 36.1065 155.293 36.3145C155.187 36.5225 155.134 36.7533 155.138 36.9866C155.132 37.201 155.178 37.4136 155.272 37.6067C155.365 37.7997 155.503 37.9676 155.675 38.0962C156.203 38.4569 156.795 38.714 157.419 38.8539C158.05 39.0079 158.66 39.236 159.238 39.5336C159.612 39.7338 159.931 40.0225 160.167 40.3746C160.381 40.7223 160.489 41.1246 160.479 41.5326C160.487 41.8615 160.415 42.1875 160.269 42.4821C160.122 42.7767 159.906 43.0309 159.638 43.2225C158.989 43.6737 158.209 43.8976 157.419 43.8593C156.825 43.8665 156.236 43.7522 155.689 43.5234C155.207 43.3328 154.792 43.0049 154.496 42.5804C154.222 42.1696 154.079 41.6851 154.087 41.1913H154.84C154.828 41.4778 154.886 41.7628 155.009 42.0219C155.131 42.2811 155.315 42.5068 155.543 42.6798C156.092 43.0654 156.755 43.2547 157.424 43.2171C158.016 43.2459 158.601 43.085 159.095 42.7577C159.293 42.6237 159.455 42.4425 159.565 42.2305C159.675 42.0184 159.731 41.7822 159.727 41.5433ZM157.059 46.5997L156.624 46.28C156.896 45.905 157.05 45.4566 157.064 44.9931V44.4047H157.768V44.7916C157.788 45.126 157.736 45.4609 157.613 45.7727C157.491 46.0846 157.301 46.3659 157.059 46.597" fill="#FC7F03"/>
<path d="M163.027 34.8203H162.274V43.7349H163.027V34.8203Z" fill="#FC7F03"/>
<path d="M169.412 34.8203H168.66V43.7349H169.412V34.8203Z" fill="#FC7F03"/>
<path d="M178.467 43.7349H177.715L172.591 36.1073V43.7349H171.831V34.8203H172.591L177.72 42.456V34.8203H178.467V43.7349Z" fill="#FC7F03"/>
<path d="M185.788 41.5426C185.798 41.3203 185.755 41.099 185.665 40.8958C185.574 40.6926 185.438 40.513 185.267 40.3711C184.92 40.0828 184.285 39.8096 183.362 39.5517C182.647 39.3826 181.964 39.0967 181.342 38.7054C181.069 38.5206 180.844 38.2729 180.686 37.9831C180.529 37.6933 180.444 37.3699 180.437 37.0402C180.431 36.7105 180.504 36.3841 180.65 36.0885C180.796 35.7928 181.011 35.5367 181.277 35.3416C181.903 34.8956 182.659 34.6706 183.427 34.7021C183.975 34.6932 184.519 34.8109 185.014 35.046C185.455 35.2569 185.827 35.5874 186.089 35.9998C186.346 36.4084 186.479 36.8823 186.473 37.3647H185.713C185.723 37.089 185.673 36.8144 185.565 36.5604C185.457 36.3065 185.295 36.0793 185.09 35.895C184.621 35.5049 184.022 35.3062 183.413 35.3389C182.835 35.3084 182.263 35.4689 181.785 35.7956C181.594 35.9295 181.438 36.1083 181.332 36.3163C181.227 36.5243 181.173 36.7552 181.178 36.9885C181.172 37.203 181.218 37.4156 181.312 37.6086C181.405 37.8017 181.543 37.9695 181.715 38.0982C182.243 38.4586 182.835 38.7157 183.459 38.8558C184.09 39.0099 184.7 39.238 185.278 39.5356C185.652 39.7359 185.971 40.0246 186.207 40.3765C186.421 40.7242 186.529 41.1265 186.519 41.5345C186.527 41.8634 186.455 42.1894 186.309 42.484C186.162 42.7786 185.946 43.0328 185.678 43.2245C185.029 43.6757 184.249 43.8996 183.459 43.8612C182.865 43.8684 182.276 43.7541 181.729 43.5254C181.247 43.3346 180.832 43.0067 180.536 42.5823C180.262 42.1715 180.119 41.687 180.127 41.1933H180.88C180.868 41.4797 180.926 41.7647 181.049 42.0239C181.171 42.283 181.355 42.5087 181.583 42.6817C182.132 43.0676 182.795 43.2569 183.464 43.2191C184.056 43.2479 184.641 43.0869 185.135 42.7597C185.338 42.6279 185.503 42.4474 185.618 42.2347C185.732 42.0219 185.79 41.7839 185.788 41.5426Z" fill="#FC7F03"/>
<path d="M194.208 35.4571H191.153V43.7349H190.401V35.4571H187.352V34.8203H194.208V35.4571Z" fill="#FC7F03"/>
<path d="M199.974 41.2314H195.928L195.009 43.7354H194.219L197.593 34.8262H198.311L201.685 43.7408H200.901L199.974 41.2314ZM196.159 40.5946H199.735L197.948 35.7397L196.159 40.5946Z" fill="#FC7F03"/>
<path d="M203.752 43.0981H208.155V43.7349H202.994V34.8203H203.752V43.0981Z" fill="#FC7F03"/>
<path d="M214.536 41.2314H210.479L209.56 43.7354H208.771L212.145 34.8262H212.862L216.237 43.7408H215.452L214.536 41.2314ZM210.721 40.5946H214.297L212.51 35.7397L210.721 40.5946Z" fill="#FC7F03"/>
<path d="M220.877 40.0196H218.297V43.7354H217.537V34.8262H220.433C221.385 34.8262 222.127 35.0563 222.661 35.5167C223.117 35.958 223.398 36.5491 223.454 37.1813C223.509 37.8136 223.334 38.4446 222.962 38.9584C222.623 39.3973 222.152 39.715 221.618 39.8638L223.846 43.6602V43.7408H223.04L220.877 40.0196ZM218.297 39.3936H220.605C221.164 39.4194 221.71 39.2266 222.129 38.8563C222.503 38.4718 222.71 37.9555 222.705 37.4193C222.701 36.8831 222.485 36.3703 222.105 35.9922C221.626 35.6184 221.026 35.433 220.42 35.471H218.297V39.3936Z" fill="#FC7F03"/>
<path d="M230.425 39.4642H226.258V43.0994H231.051V43.7361H225.503V34.8242H231.021V35.4583H226.258V38.8275H230.425V39.4642Z" fill="#FC7F03"/>
<path d="M0 36.7915C0 36.7915 3.52231 36.2542 3.85546 33.5406L5.62871 2.88225C5.62871 2.88225 5.59647 1.62755 4.45729 2.19713L2.30791 3.5405C2.30791 3.5405 0.0591081 34.8302 0 36.7915Z" fill="#00278B"/>
<path d="M72.0665 44.8386C75.0784 43.3662 75.0434 40.7897 75.0434 40.7897L73.7162 40.5371C73.5404 41.5579 73.0921 42.5122 72.4185 43.2991C72.0633 43.7259 71.6271 44.0781 71.1351 44.3354C70.643 44.5927 70.1049 44.75 69.5518 44.7983L69.9709 45.6043C70.6907 45.4081 71.3919 45.1491 72.0665 44.8305" fill="#00278B"/>
<path d="M39.1051 40.2597L32.6569 39.2575C32.592 39.3811 32.4947 39.4846 32.3754 39.557C32.2562 39.6295 32.1194 39.668 31.9799 39.6686H27.4124H27.2512C26.6292 39.6562 26.0197 39.4909 25.4767 39.1873C24.9336 38.8837 24.4736 38.451 24.1373 37.9276L12.4204 36.106C14.3314 34.3687 15.7055 32.1211 16.3807 29.6283L12.0819 28.8223C12.0819 28.8223 10.3087 33.9405 7.79926 35.7137C5.28985 37.487 0.730469 37.6616 0.730469 37.6616L0.880925 38.113L41.8079 43.6423C41.5153 43.0501 41.1859 42.4767 40.8219 41.9255C40.32 41.3045 39.7444 40.7469 39.1078 40.2651" fill="#00278B"/>
<path d="M46.7109 41.4395L48.2934 44.5023L53.5755 45.217C52.9092 43.9059 52.3343 42.8151 51.9931 42.2616L46.7109 41.4395Z" fill="#00278B"/>
<path d="M58.6055 43.291L60.0536 46.1013L63.8312 46.6118C63.8312 46.6118 64.0461 46.6118 64.4088 46.5688C63.9413 45.6312 63.4899 44.7392 63.0977 43.9896L58.6055 43.291Z" fill="#00278B"/>
<path d="M53.9335 38.1283C54.0464 38.138 54.1556 38.1729 54.2532 38.2303C55.1022 38.3862 56.2656 38.7919 56.8379 39.8424L58.1221 42.3545L62.5982 43.0557C62.4001 42.6662 62.1766 42.2902 61.9292 41.93C61.4214 41.304 60.3817 40.1729 59.127 39.6167C58.965 39.5458 58.8325 39.4213 58.7517 39.2641C58.6709 39.1069 58.6467 38.9266 58.6833 38.7536C58.7199 38.5807 58.815 38.4257 58.9526 38.3147C59.0902 38.2037 59.2619 38.1436 59.4386 38.1444H61.0507L51.3516 36.2852C51.7841 36.9273 52.6949 38.0235 53.9308 38.1283" fill="#00278B"/>
<path d="M66.9988 39.8526L69.0756 43.8827C70.1181 43.8397 71.0907 43.5657 71.7973 42.808C72.4384 42.1441 72.862 41.3007 73.0117 40.39L66.4453 39.1406C66.6678 39.3396 66.8549 39.5749 66.9988 39.8365" fill="#00278B"/>
<path d="M40.132 35.8307C40.132 35.8522 41.247 37.9801 42.988 38.1278C43.0999 38.138 43.2082 38.1729 43.305 38.2299C44.154 38.3857 45.3174 38.7914 45.8924 39.842L46.2175 40.4733L51.1799 41.2498C50.5817 40.6023 49.8753 40.0641 49.0923 39.6593C48.4233 39.6593 46.6393 39.3906 45.5565 37.1149C45.2449 36.4567 44.8956 35.7286 44.5302 34.9655L39.1729 33.9473L40.1293 35.8038" fill="#00278B"/>
<path d="M29.1858 35.8295C29.1858 35.8537 30.3034 37.9789 32.0418 38.1266C32.2142 38.1423 32.3763 38.2162 32.5012 38.3362L35.9617 38.8735C35.3825 38.4033 34.9223 37.8032 34.6183 37.1218C33.9923 35.7999 33.2132 34.1959 32.4689 32.686L27.0498 31.6543L29.1992 35.8214" fill="#00278B"/>
<path d="M16.375 24.6915H20.3433C20.3433 24.6915 22.5222 24.6512 23.2584 26.008L28.5002 36.1746C28.5002 36.1746 29.7737 38.7055 31.9795 38.8909H27.3718C27.3718 38.8909 25.4615 39.1166 24.36 36.7926C23.2584 34.4685 20.1472 28.0661 19.4621 27.2224C18.7769 26.3788 17.6727 25.2665 16.375 24.6915Z" fill="#FC7F03"/>
<path d="M27.321 24.6915H31.2893C31.2893 24.6915 33.4683 24.6512 34.2045 26.008L39.4436 36.1746C39.4436 36.1746 40.7171 38.7055 42.9229 38.8909H38.3178C38.3178 38.8909 36.4076 39.1166 35.306 36.7926C34.2045 34.4685 31.0932 28.0688 30.3947 27.2251C29.6961 26.3815 28.6053 25.2692 27.3076 24.6942" fill="#FC7F03"/>
<path d="M38.3313 38.9005H42.2996C42.2996 38.9005 44.4785 38.8602 45.2147 40.217L50.4565 50.3863C50.4565 50.3863 51.73 52.9172 53.9358 53.1026H49.3281C49.3281 53.1026 47.4178 53.3283 46.3163 51.0043C45.2147 48.6802 42.1035 42.2751 41.4103 41.4314C40.7171 40.5878 39.6209 39.4755 38.3232 38.9005" fill="#FC7F03"/>
<path d="M27.321 24.6915H31.2893C31.2893 24.6915 33.4683 24.6512 34.2045 26.008L39.4436 36.1746C39.4436 36.1746 40.7171 38.7055 42.9229 38.8909H38.3178C38.3178 38.8909 36.4076 39.1166 35.306 36.7926C34.2045 34.4685 31.0932 28.0688 30.3947 27.2251C29.6961 26.3815 28.6053 25.2692 27.3076 24.6942" fill="#FC7F03"/>
<path d="M38.3313 38.9005H42.2996C42.2996 38.9005 44.4785 38.8602 45.2147 40.217L50.4565 50.3863C50.4565 50.3863 51.73 52.9172 53.9358 53.1026H49.3281C49.3281 53.1026 47.4178 53.3283 46.3163 51.0043C45.2147 48.6802 42.1035 42.2751 41.4103 41.4314C40.7171 40.5878 39.6209 39.4755 38.3232 38.9005" fill="#FC7F03"/>
<path d="M27.321 24.6915H31.2893C31.2893 24.6915 33.4683 24.6512 34.2045 26.008L39.4436 36.1746C39.4436 36.1746 40.7171 38.7055 42.9229 38.8909H38.3178C38.3178 38.8909 36.4076 39.1166 35.306 36.7926C34.2045 34.4685 31.0932 28.0688 30.3947 27.2251C29.6961 26.3815 28.6053 25.2692 27.3076 24.6942" fill="#FC7F03"/>
<path d="M38.3313 38.9005H42.2996C42.2996 38.9005 44.4785 38.8602 45.2147 40.217L50.4565 50.3863C50.4565 50.3863 51.73 52.9172 53.9358 53.1026H49.3281C49.3281 53.1026 47.4178 53.3283 46.3163 51.0043C45.2147 48.6802 42.1035 42.2751 41.4103 41.4314C40.7171 40.5878 39.6209 39.4755 38.3232 38.9005" fill="#FC7F03"/>
<path d="M50.3889 36.1734L45.1471 26.0041C44.4136 24.6447 42.232 24.6877 42.232 24.6877H38.2637C39.5614 25.2653 40.6629 26.3749 41.3507 27.2186C42.0385 28.0622 45.1471 34.4727 46.2486 36.7887C47.3502 39.1047 49.2605 38.8897 49.2605 38.8897H53.8655C51.6624 38.7043 50.3862 36.1734 50.3862 36.1734" fill="#FC7F03"/>
<path d="M61.4026 50.3863L56.1608 40.217C55.4273 38.8576 53.2456 38.9005 53.2456 38.9005H49.2773C50.575 39.4782 51.6766 40.5878 52.3644 41.4314C53.0522 42.2751 56.1608 48.6856 57.2623 51.0043C58.3639 53.3229 60.2741 53.0999 60.2741 53.0999H64.8792C62.6761 52.9145 61.3999 50.3836 61.3999 50.3836" fill="#FC7F03"/>
<path d="M59.4414 38.9005H63.4097C63.4097 38.9005 65.5887 38.8602 66.3248 40.217L71.5666 50.3863C71.5666 50.3863 72.8455 52.9172 75.0433 53.0999H70.4275C70.4275 53.0999 68.5172 53.3256 67.4156 51.0016C66.3141 48.6775 63.2028 42.2751 62.5177 41.4314C61.8326 40.5878 60.731 39.4755 59.4307 38.9005" fill="#FC7F03"/>
<path d="M16.375 24.6915H20.3433C20.3433 24.6915 22.5222 24.6512 23.2584 26.008L28.5002 36.1746C28.5002 36.1746 29.7737 38.7055 31.9795 38.8909H27.3718C27.3718 38.8909 25.4615 39.1166 24.36 36.7926C23.2584 34.4685 20.1472 28.0661 19.4621 27.2224C18.7769 26.3788 17.6727 25.2665 16.375 24.6915Z" fill="#FC7F03"/>
<mask id="mask0_2086_18005" style="mask-type:luminance" maskUnits="userSpaceOnUse" x="27" y="24" width="16" height="15">
<path d="M31.2896 24.6914H27.3213C28.619 25.2691 29.7205 26.3787 30.4083 27.2223C31.0961 28.0659 34.2047 34.4765 35.3063 36.7951C36.4078 39.1138 38.3181 38.8935 38.3181 38.8935H42.9232C40.72 38.7081 39.4438 36.1772 39.4438 36.1772L34.202 26.0079C33.5088 24.7263 31.5314 24.6914 31.3084 24.6914H31.2896Z" fill="white"/>
</mask>
<g mask="url(#mask0_2086_18005)">
<path d="M37.3636 17.2164L20.4102 29.8301L32.8795 46.5895L49.833 33.9758L37.3636 17.2164Z" fill="url(#paint0_linear_2086_18005)"/>
</g>
<mask id="mask1_2086_18005" style="mask-type:luminance" maskUnits="userSpaceOnUse" x="38" y="38" width="16" height="16">
<path d="M42.2994 38.9011H38.3311C39.6287 39.4761 40.7303 40.5884 41.4181 41.432C42.1059 42.2757 45.2145 48.6862 46.316 51.0022C47.4176 53.3181 49.3305 53.1005 49.3305 53.1005H53.9356C51.7298 52.9151 50.4563 50.3842 50.4563 50.3842L45.2145 40.2149C44.5213 38.9334 42.5439 38.8984 42.3209 38.8984H42.2994" fill="white"/>
</mask>
<g mask="url(#mask1_2086_18005)">
<path d="M48.3753 31.4253L31.4219 44.0391L43.8913 60.7985L60.8447 48.1848L48.3753 31.4253Z" fill="url(#paint1_linear_2086_18005)"/>
</g>
<path d="M27.322 24.6915H31.2903C31.2903 24.6915 33.4693 24.6512 34.2054 26.008L39.4446 36.1746C39.4446 36.1746 40.7181 38.7055 42.9239 38.8909H38.3188C38.3188 38.8909 36.4086 39.1166 35.307 36.7926C34.2054 34.4685 31.0942 28.0688 30.3956 27.2251C29.6971 26.3815 28.6063 25.2692 27.3086 24.6942" fill="#FC7F03"/>
<mask id="mask2_2086_18005" style="mask-type:luminance" maskUnits="userSpaceOnUse" x="38" y="38" width="16" height="16">
<path d="M42.2994 38.9011H38.3311C39.6287 39.4761 40.7303 40.5884 41.4181 41.432C42.1059 42.2757 45.2145 48.6862 46.316 51.0022C47.4176 53.3181 49.3305 53.1005 49.3305 53.1005H53.9356C51.7298 52.9151 50.4563 50.3842 50.4563 50.3842L45.2145 40.2149C44.5213 38.9334 42.5439 38.8984 42.3209 38.8984H42.2994" fill="white"/>
</mask>
<g mask="url(#mask2_2086_18005)">
<path d="M48.3753 31.4253L31.4219 44.0391L43.8913 60.7985L60.8447 48.1848L48.3753 31.4253Z" fill="url(#paint2_linear_2086_18005)"/>
</g>
<mask id="mask3_2086_18005" style="mask-type:luminance" maskUnits="userSpaceOnUse" x="49" y="38" width="16" height="16">
<path d="M53.2332 38.9021H49.2783C50.576 39.4797 51.6776 40.5894 52.3627 41.433C53.0478 42.2766 56.159 48.6872 57.2606 51.0031C58.3622 53.3191 60.2751 53.1015 60.2751 53.1015H64.8802C62.6771 52.9161 61.4035 50.3852 61.4035 50.3852L56.1617 40.2052C55.4686 38.9236 53.4911 38.8887 53.2681 38.8887H53.2332" fill="white"/>
</mask>
<g mask="url(#mask3_2086_18005)">
<path d="M59.3197 31.4253L42.3662 44.0391L54.8356 60.7985L71.7891 48.1848L59.3197 31.4253Z" fill="url(#paint3_linear_2086_18005)"/>
</g>
<mask id="mask4_2086_18005" style="mask-type:luminance" maskUnits="userSpaceOnUse" x="59" y="38" width="17" height="16">
<path d="M63.4061 38.9011H59.4404C60.7381 39.4761 61.8397 40.5884 62.5248 41.432C63.2099 42.2757 66.3212 48.6862 67.4254 51.0022C68.5296 53.3181 70.4265 53.1005 70.4265 53.1005H75.0315C72.8257 52.9151 71.5522 50.3842 71.5522 50.3842L66.3104 40.2149C65.6172 38.9334 63.6425 38.8984 63.4168 38.8984H63.3953" fill="white"/>
</mask>
<g mask="url(#mask4_2086_18005)">
<path d="M69.4837 31.4253L52.5303 44.0391L64.9997 60.7985L81.9531 48.1848L69.4837 31.4253Z" fill="url(#paint4_linear_2086_18005)"/>
</g>
<path d="M75.218 23.1905C50.6613 10.4769 9.96265 0.890625 9.96265 0.890625C10.3146 3.6499 8.8584 24.4775 8.8584 24.4775C6.85142 26.8955 6.90246 32.3066 6.90246 32.3066H7.28935C7.41563 26.8364 9.29634 26.5328 9.29634 26.5328C49.4442 30.2486 75.6586 40.0847 75.6586 40.0847C75.3493 40.8677 74.9717 41.622 74.5302 42.3389C76.1852 41.6134 76.8865 40.6355 76.8865 40.6355C76.9375 36.3206 75.1965 23.1878 75.1965 23.1878M68.6221 23.5237L65.6452 22.3523V20.9149L68.6221 22.0836V23.5237ZM72.2707 24.9611L69.2911 23.7897V22.3523L72.2707 23.5237V24.9611Z" fill="#00278B"/>
<defs>
<linearGradient id="paint0_linear_2086_18005" x1="54.5812" y1="57.7224" x2="33.6936" y2="29.6484" gradientUnits="userSpaceOnUse">
<stop stop-color="white"/>
<stop offset="1" stop-color="#FC7F03"/>
</linearGradient>
<linearGradient id="paint1_linear_2086_18005" x1="54.8706" y1="57.5155" x2="33.983" y2="29.4416" gradientUnits="userSpaceOnUse">
<stop stop-color="white"/>
<stop offset="1" stop-color="#FC7F03"/>
</linearGradient>
<linearGradient id="paint2_linear_2086_18005" x1="52.9069" y1="56.5956" x2="41.7238" y2="41.5649" gradientUnits="userSpaceOnUse">
<stop stop-color="white"/>
<stop offset="1" stop-color="#FC7F03"/>
</linearGradient>
<linearGradient id="paint3_linear_2086_18005" x1="63.8609" y1="56.5951" x2="52.6778" y2="41.5644" gradientUnits="userSpaceOnUse">
<stop stop-color="white"/>
<stop offset="1" stop-color="#FC7F03"/>
</linearGradient>
<linearGradient id="paint4_linear_2086_18005" x1="74.0185" y1="56.5999" x2="62.8354" y2="41.5692" gradientUnits="userSpaceOnUse">
<stop stop-color="white"/>
<stop offset="1" stop-color="#FC7F03"/>
</linearGradient>
</defs>
</svg>
