<svg width="25" height="24" viewBox="0 0 25 24" fill="none" xmlns="http://www.w3.org/2000/svg">
<path d="M4.2059 17.0194L3.00234 9.83981C2.82036 8.75428 2.72938 8.21152 3.02074 7.85576C3.31211 7.5 3.84762 7.5 4.91865 7.5H19.7474C20.8184 7.5 21.3539 7.5 21.6453 7.85576C21.9366 8.21152 21.8456 8.75428 21.6637 9.83981L20.4601 17.0194C20.0612 19.3991 19.8617 20.5889 19.0473 21.2945C18.233 22 17.059 22 14.7112 22H9.95483C7.60697 22 6.43304 22 5.61866 21.2945C4.80428 20.5889 4.60482 19.3991 4.2059 17.0194Z" stroke="#FEFEFE" stroke-width="1.5"/>
<path d="M17.833 7.5C17.833 4.46243 15.3706 2 12.333 2C9.29544 2 6.83301 4.46243 6.83301 7.5" stroke="#FEFEFE" stroke-width="1.5"/>
</svg>
