<svg width="875" height="195" viewBox="0 0 875 195" fill="none" xmlns="http://www.w3.org/2000/svg">
<path opacity="0.15" d="M77.3648 194.6C26.6648 194.6 0.664844 169.38 0.664844 132.98H37.3248C38.1048 156.12 53.4448 166.26 78.1449 166.26C103.105 166.26 115.585 156.38 115.585 139.48C115.585 118.16 94.2649 115.04 66.9648 109.58C30.3048 102.3 5.34484 89.04 5.34484 55.76C5.34484 19.62 33.9448 0.119991 77.1048 0.119991C123.905 0.119991 149.385 21.18 150.165 56.54H113.505C112.725 38.34 100.505 27.68 77.1048 27.68C56.5648 27.68 43.8248 36.78 43.8248 51.6C43.8248 70.84 61.7648 73.7 89.0648 78.64C124.945 85.14 154.065 96.84 154.065 136.62C154.065 175.88 123.385 194.6 77.3648 194.6ZM186.475 192V2.45999H220.535V115.3L279.815 53.42H320.895L267.335 107.24L322.715 192H283.715L243.415 129.6L220.535 151.7V192H186.475ZM398.272 194.6C354.072 194.6 332.752 167.04 332.752 123.62V122.84C332.752 73.96 358.752 50.82 398.272 50.82C438.052 50.82 464.312 73.96 464.312 122.84V123.62C464.052 167.04 442.732 194.6 398.272 194.6ZM398.272 167.04C418.292 167.04 429.472 155.34 429.472 135.84V110.36C429.472 90.86 417.772 78.64 398.272 78.64C379.032 78.64 367.332 90.86 367.332 110.36V135.84C367.332 155.34 378.512 167.04 398.272 167.04ZM550.111 194.6C505.911 194.6 484.591 167.04 484.591 123.62V122.84C484.591 73.96 510.591 50.82 550.111 50.82C589.891 50.82 616.151 73.96 616.151 122.84V123.62C615.891 167.04 594.571 194.6 550.111 194.6ZM550.111 167.04C570.131 167.04 581.311 155.34 581.311 135.84V110.36C581.311 90.86 569.611 78.64 550.111 78.64C530.871 78.64 519.171 90.86 519.171 110.36V135.84C519.171 155.34 530.351 167.04 550.111 167.04ZM691.031 192C671.271 192 663.211 180.82 663.211 164.44V80.98H632.271V53.42H663.211V9.47999H697.271V53.42H732.891V80.98H697.271V165.22H731.331V192H691.031ZM756.557 192V167.3L827.017 80.98H759.937V53.42H870.697V77.86L801.797 164.44H874.337V192H756.557Z" fill="#5D5D5D"/>
</svg>
