<svg width="397" height="128" viewBox="0 0 397 128" fill="none" xmlns="http://www.w3.org/2000/svg">
<path opacity="0.15" d="M28.6978 127.77C19.2573 127.77 12.118 125.115 7.27974 119.805C2.4415 114.376 0.0223821 106.647 0.0223821 96.6165V89.5362H18.4313V98.0326C18.4313 106.057 21.7945 110.069 28.5208 110.069C31.825 110.069 34.3031 109.125 35.9552 107.237C37.7252 105.231 38.6103 102.045 38.6103 97.6786C38.6103 92.4863 37.4302 87.9431 35.0701 84.0489C32.71 80.0367 28.3438 75.2575 21.9715 69.7112C13.9471 62.6309 8.34179 56.2585 5.15564 50.5943C1.96948 44.812 0.376399 38.3217 0.376399 31.1233C0.376399 21.3288 2.85452 13.7764 7.81077 8.46618C12.767 3.03791 19.9654 0.323775 29.4058 0.323775C38.7283 0.323775 45.7496 3.03791 50.4699 8.46618C55.3081 13.7764 57.7272 21.4468 57.7272 31.4773V36.6106H39.3183V30.2383C39.3183 25.99 38.4923 22.9219 36.8402 21.0338C35.1881 19.0277 32.769 18.0247 29.5828 18.0247C23.0925 18.0247 19.8474 21.9778 19.8474 29.8842C19.8474 34.3685 21.0274 38.5577 23.3875 42.4519C25.8657 46.3461 30.2909 51.0663 36.6632 56.6126C44.8056 63.6929 50.4109 70.1242 53.479 75.9065C56.5472 81.6888 58.0813 88.4741 58.0813 96.2625C58.0813 106.411 55.5441 114.199 50.4699 119.628C45.5136 125.056 38.2563 127.77 28.6978 127.77ZM68.7843 2.09386H88.2553V54.3114L113.036 2.09386H132.507L109.319 47.5851L132.861 126H112.505L96.0436 70.7733L88.2553 86.527V126H68.7843V2.09386ZM166.995 127.77C157.436 127.77 150.12 125.056 145.046 119.628C139.971 114.199 137.434 106.529 137.434 96.6165V31.4773C137.434 21.5648 139.971 13.8944 145.046 8.46618C150.12 3.03791 157.436 0.323775 166.995 0.323775C176.553 0.323775 183.869 3.03791 188.944 8.46618C194.018 13.8944 196.555 21.5648 196.555 31.4773V96.6165C196.555 106.529 194.018 114.199 188.944 119.628C183.869 125.056 176.553 127.77 166.995 127.77ZM166.995 110.069C173.721 110.069 177.084 105.998 177.084 97.8556V30.2383C177.084 22.0959 173.721 18.0247 166.995 18.0247C160.268 18.0247 156.905 22.0959 156.905 30.2383V97.8556C156.905 105.998 160.268 110.069 166.995 110.069ZM237.406 127.77C227.848 127.77 220.532 125.056 215.457 119.628C210.383 114.199 207.846 106.529 207.846 96.6165V31.4773C207.846 21.5648 210.383 13.8944 215.457 8.46618C220.532 3.03791 227.848 0.323775 237.406 0.323775C246.965 0.323775 254.281 3.03791 259.355 8.46618C264.43 13.8944 266.967 21.5648 266.967 31.4773V96.6165C266.967 106.529 264.43 114.199 259.355 119.628C254.281 125.056 246.965 127.77 237.406 127.77ZM237.406 110.069C244.133 110.069 247.496 105.998 247.496 97.8556V30.2383C247.496 22.0959 244.133 18.0247 237.406 18.0247C230.68 18.0247 227.317 22.0959 227.317 30.2383V97.8556C227.317 105.998 230.68 110.069 237.406 110.069ZM294.205 19.7947H273.849V2.09386H334.032V19.7947H313.676V126H294.205V19.7947ZM339.104 108.653L375.214 19.7947H340.874V2.09386H396.101V19.4407L359.991 108.299H396.101V126H339.104V108.653Z" fill="#5D5D5D"/>
</svg>
