<svg width="874" height="196" viewBox="0 0 874 196" fill="none" xmlns="http://www.w3.org/2000/svg">
<path d="M76.8648 195.231C26.1648 195.231 0.164844 170.011 0.164844 133.611H36.8248C37.6048 156.751 52.9448 166.891 77.6449 166.891C102.605 166.891 115.085 157.011 115.085 140.111C115.085 118.791 93.7649 115.671 66.4648 110.211C29.8048 102.931 4.84484 89.6709 4.84484 56.3908C4.84484 20.2508 33.4448 0.75085 76.6048 0.75085C123.405 0.75085 148.885 21.8109 149.665 57.1709H113.005C112.225 38.9709 100.005 28.3109 76.6048 28.3109C56.0648 28.3109 43.3248 37.4109 43.3248 52.2309C43.3248 71.4709 61.2648 74.3309 88.5648 79.2709C124.445 85.7709 153.565 97.4709 153.565 137.251C153.565 176.511 122.885 195.231 76.8648 195.231ZM185.975 192.631V3.09085H220.035V115.931L279.315 54.0508H320.395L266.835 107.871L322.215 192.631H283.215L242.915 130.231L220.035 152.331V192.631H185.975ZM397.772 195.231C353.572 195.231 332.252 167.671 332.252 124.251V123.471C332.252 74.5909 358.252 51.4508 397.772 51.4508C437.552 51.4508 463.812 74.5909 463.812 123.471V124.251C463.552 167.671 442.232 195.231 397.772 195.231ZM397.772 167.671C417.792 167.671 428.972 155.971 428.972 136.471V110.991C428.972 91.4909 417.272 79.2709 397.772 79.2709C378.532 79.2709 366.832 91.4909 366.832 110.991V136.471C366.832 155.971 378.012 167.671 397.772 167.671ZM549.611 195.231C505.411 195.231 484.091 167.671 484.091 124.251V123.471C484.091 74.5909 510.091 51.4508 549.611 51.4508C589.391 51.4508 615.651 74.5909 615.651 123.471V124.251C615.391 167.671 594.071 195.231 549.611 195.231ZM549.611 167.671C569.631 167.671 580.811 155.971 580.811 136.471V110.991C580.811 91.4909 569.111 79.2709 549.611 79.2709C530.371 79.2709 518.671 91.4909 518.671 110.991V136.471C518.671 155.971 529.851 167.671 549.611 167.671ZM690.531 192.631C670.771 192.631 662.711 181.451 662.711 165.071V81.6109H631.771V54.0508H662.711V10.1109H696.771V54.0508H732.391V81.6109H696.771V165.851H730.831V192.631H690.531ZM756.057 192.631V167.931L826.517 81.6109H759.437V54.0508H870.197V78.4909L801.297 165.071H873.837V192.631H756.057Z" fill="#5D5D5D"/>
</svg>
