<svg width="134" height="34" viewBox="0 0 134 34" fill="none" xmlns="http://www.w3.org/2000/svg">
<path d="M6.98367 25.8429C7.17827 25.324 7.308 24.7618 7.58908 24.2862C8.4107 22.924 9.64313 22.2321 11.2215 22.297C12.908 22.3618 14.1621 23.1835 14.8756 24.7402C14.9621 24.9348 15.0485 24.9997 15.2648 24.9997C15.6539 24.9781 16.0431 24.9997 16.4539 24.9997C16.281 23.8321 15.7837 22.9024 14.9188 22.1889C14.0756 21.4537 13.0593 21.0862 11.935 21.0646C11.2864 21.0429 10.7675 20.5673 10.8107 19.9835C10.8323 19.4213 11.3296 18.9456 11.9999 18.9673C14.8323 19.0105 17.3837 20.8483 18.2702 23.5943C18.3783 23.9618 18.4648 24.3294 18.508 24.697C18.5296 24.9132 18.6161 24.9564 18.8107 24.9564C21.3188 24.9564 23.8269 24.9564 26.335 24.9564C26.508 24.9564 26.5945 24.9132 26.6593 24.7402C27.9566 21.951 29.2756 19.1835 30.5945 16.3943C30.6377 16.2862 30.6377 16.1132 30.6161 15.9835C30.0972 13.67 29.5783 11.3348 29.0593 9.02131C28.8648 8.1132 28.6485 7.20509 28.4323 6.27536C28.2377 6.27536 28.0215 6.27536 27.8269 6.27536C27.0702 6.27536 26.335 6.27536 25.5783 6.25374C24.9296 6.23212 24.3891 5.75644 24.281 5.15104C24.1512 4.50239 24.4539 3.87536 25.0593 3.6159C25.2756 3.52942 25.535 3.48617 25.7729 3.48617C26.9837 3.46455 28.2161 3.48617 29.4269 3.48617C30.2702 3.48617 30.7242 3.87536 30.8972 4.69698C32.1729 10.4483 33.4269 16.2213 34.7026 21.9727C34.7458 22.1889 34.8756 22.2321 35.0485 22.2754C36.908 22.6213 38.2269 24.07 38.3783 25.9078C38.5296 27.9402 37.4918 29.6483 35.6539 30.297C33.7296 30.9889 31.5891 30.1456 30.6377 28.351C29.6864 26.5564 30.1837 24.2862 31.8053 23.0754C31.8918 23.0105 31.9999 22.8375 31.9783 22.7294C31.8485 22.0591 31.6972 21.3889 31.5458 20.6537C31.481 20.8051 31.4161 20.8916 31.3729 20.9781C30.4648 22.8808 29.5566 24.8051 28.6702 26.7078C28.3458 27.3997 27.8269 27.724 27.0485 27.724C23.1134 27.724 19.1783 27.7673 15.2215 27.7673C15.0269 27.7673 14.9188 27.8105 14.8323 28.0051C14.0756 29.7132 12.4107 30.6645 10.5512 30.4483C8.82151 30.2537 7.41611 28.9997 7.02692 27.2483C7.00529 27.1402 6.96205 27.0105 6.94043 26.9024C6.98367 26.5781 6.98367 26.2105 6.98367 25.8429ZM32.6918 25.2808C32.2161 25.951 32.2593 26.8808 32.7566 27.5294C33.2972 28.2645 34.1837 28.524 35.0485 28.2429C35.8269 27.9835 36.4756 27.1402 36.4539 26.3402C36.4539 25.67 35.9134 24.87 35.3729 24.697C35.4161 24.9348 35.4377 25.1727 35.481 25.3889C35.6107 26.1024 35.1783 26.7943 34.5296 26.9456C33.7729 27.1186 33.0377 26.6862 32.8431 25.951C32.7783 25.7348 32.7566 25.5186 32.6918 25.2808ZM12.5837 24.9781C11.8918 24.1564 10.5729 24.1132 9.75124 24.8916C8.92962 25.67 8.95124 27.0321 9.77286 27.8105C10.6377 28.6321 11.9999 28.4159 12.5837 27.8105C12.3242 27.8105 12.0864 27.8105 11.8269 27.8105C11.0918 27.7889 10.508 27.2267 10.4648 26.5348C10.4215 25.7564 10.8972 25.151 11.6539 25.0429C11.9783 24.9997 12.281 24.9997 12.5837 24.9781Z" fill="#050505"/>
<path d="M61.3493 26.36C60.1093 26.36 58.9893 26.148 57.9893 25.724C56.9973 25.292 56.1773 24.68 55.5293 23.888C54.8893 23.088 54.4733 22.14 54.2813 21.044L56.8973 20.648C57.1613 21.704 57.7133 22.528 58.5533 23.12C59.3933 23.704 60.3733 23.996 61.4933 23.996C62.1893 23.996 62.8293 23.888 63.4133 23.672C63.9973 23.448 64.4653 23.132 64.8173 22.724C65.1773 22.308 65.3573 21.812 65.3573 21.236C65.3573 20.924 65.3013 20.648 65.1893 20.408C65.0853 20.168 64.9373 19.96 64.7453 19.784C64.5613 19.6 64.3333 19.444 64.0613 19.316C63.7973 19.18 63.5053 19.064 63.1853 18.968L58.7573 17.66C58.3253 17.532 57.8853 17.368 57.4373 17.168C56.9893 16.96 56.5773 16.692 56.2013 16.364C55.8333 16.028 55.5333 15.616 55.3013 15.128C55.0693 14.632 54.9533 14.032 54.9533 13.328C54.9533 12.264 55.2253 11.364 55.7693 10.628C56.3213 9.884 57.0653 9.324 58.0013 8.948C58.9373 8.564 59.9853 8.372 61.1453 8.372C62.3133 8.388 63.3573 8.596 64.2773 8.996C65.2053 9.396 65.9733 9.972 66.5813 10.724C67.1973 11.468 67.6213 12.372 67.8533 13.436L65.1653 13.892C65.0453 13.244 64.7893 12.688 64.3973 12.224C64.0053 11.752 63.5253 11.392 62.9573 11.144C62.3893 10.888 61.7733 10.756 61.1093 10.748C60.4693 10.732 59.8813 10.828 59.3453 11.036C58.8173 11.244 58.3933 11.536 58.0733 11.912C57.7613 12.288 57.6053 12.72 57.6053 13.208C57.6053 13.688 57.7453 14.076 58.0253 14.372C58.3053 14.668 58.6493 14.904 59.0573 15.08C59.4733 15.248 59.8853 15.388 60.2933 15.5L63.4853 16.4C63.8853 16.512 64.3373 16.664 64.8413 16.856C65.3533 17.04 65.8453 17.3 66.3173 17.636C66.7973 17.972 67.1933 18.42 67.5053 18.98C67.8173 19.532 67.9733 20.228 67.9733 21.068C67.9733 21.94 67.7973 22.708 67.4453 23.372C67.0933 24.028 66.6093 24.58 65.9933 25.028C65.3853 25.468 64.6813 25.8 63.8813 26.024C63.0813 26.248 62.2373 26.36 61.3493 26.36ZM70.5186 26L70.5306 8.72H73.0746V19.28L78.1626 13.04H81.3546L75.9786 19.52L81.9066 26H78.4986L73.0746 19.76V26H70.5186ZM88.5101 26.36C87.2141 26.36 86.0901 26.068 85.1381 25.484C84.1861 24.9 83.4501 24.096 82.9301 23.072C82.4181 22.04 82.1621 20.852 82.1621 19.508C82.1621 18.156 82.4261 16.968 82.9541 15.944C83.4821 14.912 84.2221 14.112 85.1741 13.544C86.1261 12.968 87.2381 12.68 88.5101 12.68C89.8061 12.68 90.9301 12.972 91.8821 13.556C92.8341 14.14 93.5701 14.944 94.0901 15.968C94.6101 16.992 94.8701 18.172 94.8701 19.508C94.8701 20.86 94.6061 22.052 94.0781 23.084C93.5581 24.108 92.8221 24.912 91.8701 25.496C90.9181 26.072 89.7981 26.36 88.5101 26.36ZM88.5101 23.996C89.7501 23.996 90.6741 23.58 91.2821 22.748C91.8981 21.908 92.2061 20.828 92.2061 19.508C92.2061 18.156 91.8941 17.076 91.2701 16.268C90.6541 15.452 89.7341 15.044 88.5101 15.044C87.6701 15.044 86.9781 15.236 86.4341 15.62C85.8901 15.996 85.4861 16.52 85.2221 17.192C84.9581 17.856 84.8261 18.628 84.8261 19.508C84.8261 20.868 85.1381 21.956 85.7621 22.772C86.3861 23.588 87.3021 23.996 88.5101 23.996ZM103.135 26.36C101.839 26.36 100.715 26.068 99.7631 25.484C98.8111 24.9 98.0751 24.096 97.5551 23.072C97.0431 22.04 96.7871 20.852 96.7871 19.508C96.7871 18.156 97.0511 16.968 97.5791 15.944C98.1071 14.912 98.8471 14.112 99.7991 13.544C100.751 12.968 101.863 12.68 103.135 12.68C104.431 12.68 105.555 12.972 106.507 13.556C107.459 14.14 108.195 14.944 108.715 15.968C109.235 16.992 109.495 18.172 109.495 19.508C109.495 20.86 109.231 22.052 108.703 23.084C108.183 24.108 107.447 24.912 106.495 25.496C105.543 26.072 104.423 26.36 103.135 26.36ZM103.135 23.996C104.375 23.996 105.299 23.58 105.907 22.748C106.523 21.908 106.831 20.828 106.831 19.508C106.831 18.156 106.519 17.076 105.895 16.268C105.279 15.452 104.359 15.044 103.135 15.044C102.295 15.044 101.603 15.236 101.059 15.62C100.515 15.996 100.111 16.52 99.8471 17.192C99.5831 17.856 99.4511 18.628 99.4511 19.508C99.4511 20.868 99.7631 21.956 100.387 22.772C101.011 23.588 101.927 23.996 103.135 23.996ZM119.548 26C118.732 26.16 117.932 26.228 117.148 26.204C116.364 26.18 115.664 26.028 115.048 25.748C114.432 25.468 113.968 25.028 113.656 24.428C113.376 23.892 113.224 23.348 113.2 22.796C113.184 22.236 113.176 21.604 113.176 20.9V9.44H115.696V20.78C115.696 21.3 115.7 21.752 115.708 22.136C115.724 22.52 115.808 22.844 115.96 23.108C116.248 23.604 116.704 23.888 117.328 23.96C117.96 24.024 118.7 23.996 119.548 23.876V26ZM110.692 15.056V13.04H119.548V15.056H110.692ZM121.081 26V25.604L128.437 15.284H121.753V13.04H132.421V13.448L125.077 23.756H132.061V26H121.081Z" fill="#080707"/>
</svg>
