<svg width="160" height="160" viewBox="0 0 160 160" fill="none" xmlns="http://www.w3.org/2000/svg">
<circle cx="80" cy="80" r="77" fill="#292929" stroke="#FEFEFE" stroke-width="4"/>
<circle cx="80" cy="80" r="79" stroke="#5D5D5D" stroke-width="2"/>
<path d="M23.8899 58.5417L34.7966 62.5976L34.3027 63.9173L24.7807 60.3763L24.7568 60.4402L25.5291 63.7584L24.1871 63.2593L23.3961 59.8614L23.8899 58.5417Z" fill="#FEFEFE"/>
<path d="M41.4644 50.9433C40.9472 51.6255 40.3207 52.0664 39.5847 52.266C38.8457 52.4634 38.0246 52.421 37.1214 52.139C36.2151 51.8547 35.2567 51.332 34.2462 50.5708C33.2417 49.8141 32.4801 49.0412 31.9613 48.2521C31.4418 47.4576 31.1764 46.6791 31.165 45.9166C31.153 45.1487 31.4032 44.4267 31.9158 43.7505C32.4284 43.0744 33.0557 42.6388 33.7977 42.4437C34.539 42.2433 35.3628 42.2853 36.269 42.5696C37.1745 42.8486 38.1295 43.3664 39.134 44.1231C40.1445 44.8843 40.9107 45.6606 41.4325 46.452C41.9513 47.2412 42.2163 48.017 42.2277 48.7796C42.236 49.5398 41.9815 50.2611 41.4644 50.9433ZM40.466 50.1912C40.9785 49.515 41.0499 48.7437 40.6802 47.8771C40.3104 47.0105 39.5204 46.1214 38.3102 45.2098C37.5054 44.6035 36.7549 44.1733 36.0587 43.9192C35.3648 43.6621 34.7483 43.5818 34.2092 43.6784C33.6725 43.772 33.2347 44.0422 32.8961 44.489C32.3881 45.1591 32.3224 45.9324 32.6989 46.8088C33.0724 47.683 33.8628 48.5747 35.07 49.4841C35.8748 50.0903 36.6226 50.5209 37.3135 50.7757C38.0044 51.0306 38.6167 51.1101 39.1505 51.0142C39.6865 50.9153 40.125 50.641 40.466 50.1912Z" fill="#FEFEFE"/>
<path d="M51.2459 41.3512C50.5553 41.857 49.8288 42.1003 49.0664 42.0811C48.3019 42.0588 47.5272 41.7834 46.7424 41.2549C45.9553 40.7232 45.1865 39.9482 44.4359 38.9298C43.6898 37.9174 43.181 36.959 42.9096 36.0544C42.639 35.1446 42.6073 34.3227 42.8146 33.5887C43.0226 32.8495 43.4689 32.2292 44.1534 31.7279C44.838 31.2265 45.5637 30.9885 46.3305 31.0138C47.0981 31.0338 47.8754 31.3096 48.6625 31.8412C49.4504 32.3676 50.2174 33.1369 50.9635 34.1492C51.7141 35.1677 52.2262 36.1307 52.4999 37.0383C52.7713 37.9429 52.8033 38.7621 52.5961 39.4961C52.3866 40.227 51.9366 40.8454 51.2459 41.3512ZM50.5043 40.3449C51.1888 39.8436 51.4779 39.1249 51.3714 38.1887C51.2649 37.2526 50.7622 36.1746 49.8633 34.9549C49.2655 34.1439 48.6694 33.517 48.075 33.0744C47.4836 32.6295 46.9158 32.3763 46.3717 32.3147C45.8306 32.2509 45.3339 32.3846 44.8816 32.7158C44.2031 33.2126 43.919 33.9348 44.0292 34.8824C44.1371 35.8269 44.6394 36.9074 45.536 38.1241C46.1338 38.9352 46.7273 39.5616 47.3164 40.0034C47.9055 40.4453 48.4695 40.6966 49.0084 40.7573C49.5503 40.8159 50.049 40.6784 50.5043 40.3449Z" fill="#FEFEFE"/>
<path d="M64.4976 32.0952L64.3243 31.5065C64.2044 31.0996 64.1783 30.7027 64.2461 30.3158C64.3163 29.9242 64.4833 29.5794 64.7469 29.2812C65.0131 28.9783 65.3788 28.7588 65.8442 28.6226C66.3168 28.4843 66.7435 28.4719 67.1244 28.5854C67.5043 28.6953 67.8263 28.897 68.0905 29.1907C68.3536 29.4808 68.5451 29.8293 68.6649 30.2362L68.8383 30.8249C68.9582 31.2318 68.9848 31.6306 68.9181 32.021C68.8541 32.4068 68.6907 32.7506 68.4282 33.0524C68.1682 33.3496 67.8055 33.5662 67.3402 33.7024C66.8676 33.8407 66.4396 33.8554 66.0561 33.7466C65.6715 33.6342 65.3459 33.4335 65.0791 33.1445C64.8113 32.8519 64.6175 32.5021 64.4976 32.0952ZM65.4367 31.181L65.6101 31.7696C65.7096 32.1075 65.8789 32.3875 66.1181 32.6096C66.3561 32.828 66.6715 32.8798 67.0641 32.7649C67.4458 32.6532 67.6758 32.4418 67.754 32.1308C67.8348 31.8152 67.8254 31.4883 67.7259 31.1504L67.5525 30.5618C67.453 30.2239 67.2878 29.9446 67.057 29.724C66.8251 29.4998 66.5129 29.4452 66.1203 29.5601C65.7385 29.6718 65.5037 29.8866 65.4156 30.2044C65.3302 30.5175 65.3372 30.8431 65.4367 31.181ZM57.0542 27.3351L56.8808 26.7465C56.761 26.3395 56.7349 25.9426 56.8026 25.5558C56.8729 25.1642 57.0398 24.8193 57.3034 24.5212C57.5696 24.2183 57.9354 23.9988 58.4007 23.8626C58.8733 23.7243 59.3001 23.7119 59.681 23.8254C60.0608 23.9352 60.3829 24.137 60.647 24.4307C60.9102 24.7207 61.1016 25.0692 61.2215 25.4762L61.3949 26.0648C61.5147 26.4718 61.5413 26.8705 61.4747 27.261C61.4106 27.6468 61.2473 27.9906 60.9847 28.2924C60.7248 28.5895 60.3621 28.8062 59.8968 28.9423C59.4242 29.0806 58.9961 29.0954 58.6126 28.9866C58.2281 28.8742 57.9025 28.6735 57.6357 28.3845C57.3679 28.0919 57.174 27.7421 57.0542 27.3351ZM57.9933 26.4209L58.1666 27.0096C58.2661 27.3475 58.4355 27.6275 58.6746 27.8496C58.9127 28.068 59.2281 28.1198 59.6207 28.0049C60.0024 27.8932 60.2324 27.6818 60.3106 27.3708C60.3913 27.0551 60.3819 26.7283 60.2824 26.3904L60.1091 25.8017C60.0095 25.4638 59.8444 25.1846 59.6136 24.964C59.3817 24.7398 59.0694 24.6852 58.6768 24.8001C58.2951 24.9118 58.0602 25.1265 57.9722 25.4444C57.8867 25.7575 57.8937 26.083 57.9933 26.4209ZM59.9663 35.6946L64.3568 22.2853L65.6001 21.9214L61.2096 35.3308L59.9663 35.6946Z" fill="#FEFEFE"/>
<path d="M89.9556 22.4596L90.273 21.2506L98.7178 23.4529L98.4005 24.6619L94.8598 23.7386L92.2233 33.7847L90.8598 33.4291L93.4963 23.383L89.9556 22.4596Z" fill="#FEFEFE"/>
<path d="M100.921 37.1005L105.245 29.5194L106.372 30.1581L105.719 31.3031L105.798 31.348C106.15 31.0513 106.574 30.8889 107.07 30.8607C107.566 30.8325 108.041 30.9472 108.496 31.205C108.581 31.2535 108.687 31.3159 108.814 31.392C108.941 31.4681 109.035 31.5281 109.097 31.5721L108.422 32.7566C108.388 32.7243 108.306 32.6582 108.175 32.5581C108.05 32.4567 107.91 32.362 107.755 32.2743C107.386 32.0651 107.012 31.9557 106.634 31.946C106.261 31.9349 105.914 32.0166 105.592 32.1911C105.275 32.3643 105.019 32.622 104.824 32.9642L102.088 37.7616L100.921 37.1005Z" fill="#FEFEFE"/>
<path d="M116.543 44.3453L120.17 40.676L121.126 41.6156L114.991 47.8227L114.035 46.8831L115.073 45.8324L115.008 45.7687C114.551 45.9406 114.059 45.9857 113.533 45.904C113.009 45.8196 112.512 45.5465 112.042 45.0847C111.652 44.7025 111.39 44.2779 111.255 43.8109C111.123 43.3412 111.141 42.849 111.309 42.3343C111.479 41.8169 111.826 41.2942 112.348 40.7662L116.246 36.8221L117.203 37.7617L113.368 41.6411C112.921 42.0937 112.691 42.5795 112.679 43.0984C112.669 43.6199 112.863 44.0758 113.26 44.4659C113.498 44.6995 113.8 44.8764 114.166 44.9967C114.534 45.1197 114.926 45.1382 115.341 45.0522C115.759 44.9689 116.16 44.7332 116.543 44.3453Z" fill="#FEFEFE"/>
<path d="M128.252 55.3972L127.354 54.5236C127.49 54.3581 127.603 54.1643 127.694 53.9421C127.79 53.7213 127.829 53.4716 127.813 53.1929C127.796 52.9141 127.69 52.6058 127.495 52.2679C127.228 51.8054 126.899 51.4811 126.507 51.2952C126.121 51.1107 125.765 51.1118 125.44 51.2984C125.151 51.4642 124.983 51.7002 124.936 52.0062C124.89 52.3123 124.94 52.7205 125.086 53.2307L125.457 54.511C125.683 55.281 125.722 55.9288 125.575 56.4542C125.431 56.9778 125.095 57.3913 124.566 57.6947C124.132 57.9434 123.672 58.0411 123.187 57.9878C122.703 57.9377 122.235 57.7478 121.782 57.418C121.329 57.0882 120.933 56.6297 120.594 56.0424C120.149 55.2715 119.949 54.5373 119.992 53.8398C120.036 53.1424 120.341 52.5417 120.907 52.0379L121.819 52.9819C121.472 53.3205 121.281 53.6943 121.246 54.1031C121.213 54.5152 121.334 54.9591 121.608 55.4348C121.921 55.9761 122.284 56.3399 122.697 56.5262C123.116 56.7139 123.488 56.7145 123.813 56.5279C124.076 56.3771 124.243 56.159 124.315 55.8735C124.39 55.5862 124.361 55.2268 124.231 54.7953L123.799 53.3659C123.564 52.5795 123.525 51.9249 123.683 51.4023C123.845 50.881 124.188 50.4706 124.71 50.1709C125.138 49.9259 125.584 49.829 126.051 49.88C126.52 49.9343 126.968 50.1161 127.396 50.4253C127.826 50.7378 128.194 51.1598 128.501 51.6913C128.932 52.4392 129.107 53.1207 129.025 53.7356C128.944 54.3539 128.686 54.9077 128.252 55.3972Z" fill="#FEFEFE"/>
<path d="M133.983 65.3662L132.894 65.6902L131.596 61.3576L132.685 61.0335L133.983 65.3662ZM135.068 61.7L135.452 62.9846L127.479 65.3567C127.116 65.4647 126.86 65.5984 126.71 65.7576C126.565 65.9194 126.486 66.0929 126.474 66.2782C126.467 66.4661 126.492 66.6543 126.548 66.843C126.591 66.9845 126.633 67.0985 126.675 67.1849C126.72 67.2702 126.756 67.3385 126.783 67.3896L125.707 67.9944C125.648 67.9171 125.579 67.8052 125.5 67.6589C125.417 67.5137 125.339 67.3213 125.268 67.0818C125.159 66.7189 125.131 66.3401 125.182 65.9453C125.235 65.5541 125.387 65.1967 125.638 64.873C125.89 64.553 126.26 64.3206 126.746 64.1759L135.068 61.7Z" fill="#FEFEFE"/>
<path d="M126.738 75.1324C126.711 74.8534 126.787 74.6043 126.968 74.3852C127.148 74.1661 127.378 74.043 127.657 74.016C127.936 73.9891 128.185 74.0658 128.404 74.2463C128.623 74.4268 128.747 74.6566 128.774 74.9355C128.801 75.2145 128.724 75.4636 128.544 75.6827C128.363 75.9019 128.134 76.0249 127.855 76.0519C127.67 76.0697 127.496 76.039 127.332 75.9597C127.169 75.8842 127.032 75.7737 126.923 75.6282C126.818 75.4862 126.756 75.3209 126.738 75.1324Z" fill="#FEFEFE"/>
<path d="M135.389 98.8835L124.372 95.1374L124.828 93.8042L134.446 97.0747L134.468 97.0102L133.602 93.715L134.958 94.176L135.845 97.5503L135.389 98.8835Z" fill="#FEFEFE"/>
<path d="M118.038 106.976C118.535 106.279 119.149 105.82 119.879 105.6C120.612 105.382 121.434 105.401 122.345 105.657C123.259 105.916 124.232 106.411 125.263 107.144C126.289 107.871 127.072 108.622 127.613 109.397C128.155 110.176 128.442 110.947 128.475 111.709C128.509 112.476 128.279 113.205 127.786 113.895C127.293 114.586 126.678 115.039 125.942 115.255C125.207 115.476 124.382 115.458 123.468 115.199C122.555 114.946 121.586 114.455 120.56 113.727C119.529 112.995 118.741 112.241 118.197 111.464C117.656 110.69 117.369 109.922 117.336 109.16C117.306 108.4 117.54 107.672 118.038 106.976ZM119.057 107.699C118.564 108.39 118.514 109.163 118.909 110.018C119.303 110.874 120.118 111.741 121.353 112.618C122.175 113.201 122.937 113.61 123.64 113.844C124.341 114.081 124.96 114.144 125.496 114.032C126.03 113.923 126.459 113.641 126.785 113.185C127.274 112.501 127.318 111.726 126.917 110.86C126.519 109.997 125.703 109.128 124.471 108.253C123.649 107.67 122.889 107.261 122.192 107.026C121.494 106.79 120.88 106.728 120.349 106.839C119.816 106.953 119.385 107.24 119.057 107.699Z" fill="#FEFEFE"/>
<path d="M108.533 116.843C109.209 116.318 109.928 116.054 110.691 116.051C111.456 116.052 112.238 116.305 113.037 116.811C113.839 117.321 114.63 118.073 115.409 119.07C116.183 120.061 116.719 121.005 117.016 121.901C117.312 122.803 117.367 123.624 117.181 124.363C116.994 125.108 116.565 125.741 115.895 126.261C115.225 126.782 114.506 127.04 113.739 127.036C112.971 127.038 112.186 126.785 111.385 126.275C110.582 125.772 109.794 125.024 109.019 124.034C108.24 123.037 107.701 122.089 107.401 121.189C107.105 120.293 107.049 119.475 107.236 118.735C107.424 117.999 107.857 117.368 108.533 116.843ZM109.303 117.828C108.632 118.348 108.364 119.075 108.497 120.007C108.63 120.94 109.163 122.003 110.096 123.197C110.717 123.991 111.33 124.601 111.937 125.026C112.541 125.454 113.115 125.691 113.661 125.737C114.204 125.786 114.697 125.638 115.139 125.294C115.803 124.778 116.067 124.048 115.93 123.104C115.795 122.163 115.263 121.097 114.332 119.907C113.711 119.113 113.1 118.504 112.499 118.079C111.897 117.654 111.327 117.418 110.786 117.373C110.243 117.33 109.748 117.481 109.303 117.828Z" fill="#FEFEFE"/>
<path d="M95.5486 126.467L95.7386 127.05C95.8699 127.454 95.9073 127.85 95.8506 128.238C95.7914 128.632 95.6344 128.981 95.3793 129.287C95.1218 129.597 94.7624 129.827 94.3011 129.976C93.8326 130.128 93.4063 130.152 93.0223 130.049C92.6395 129.95 92.3119 129.758 92.0395 129.472C91.7682 129.189 91.5669 128.846 91.4355 128.443L91.2455 127.859C91.1142 127.456 91.0762 127.058 91.1318 126.666C91.1849 126.279 91.3384 125.93 91.5922 125.621C91.8437 125.317 92.2001 125.09 92.6614 124.941C93.1299 124.789 93.5574 124.762 93.9438 124.86C94.3314 124.962 94.6626 125.153 94.9375 125.434C95.2135 125.719 95.4172 126.064 95.5486 126.467ZM94.6358 127.407L94.4458 126.824C94.3367 126.489 94.1595 126.214 93.9141 125.999C93.6699 125.787 93.3532 125.744 92.964 125.87C92.5856 125.992 92.3617 126.21 92.2924 126.523C92.2206 126.841 92.2392 127.168 92.3483 127.503L92.5383 128.086C92.6474 128.421 92.8204 128.695 93.0574 128.909C93.2956 129.127 93.6093 129.173 93.9985 129.047C94.3769 128.924 94.6056 128.703 94.6846 128.383C94.7611 128.067 94.7449 127.742 94.6358 127.407ZM103.124 131.014L103.314 131.598C103.446 132.001 103.483 132.397 103.426 132.786C103.367 133.179 103.21 133.529 102.955 133.834C102.698 134.144 102.338 134.374 101.877 134.524C101.409 134.675 100.982 134.7 100.598 134.597C100.215 134.498 99.8878 134.305 99.6154 134.019C99.3441 133.737 99.1428 133.394 99.0114 132.99L98.8214 132.407C98.6901 132.004 98.6522 131.606 98.7077 131.213C98.7608 130.826 98.9143 130.478 99.1682 130.169C99.4196 129.864 99.776 129.638 100.237 129.488C100.706 129.337 101.133 129.31 101.52 129.408C101.907 129.509 102.239 129.701 102.513 129.982C102.789 130.267 102.993 130.611 103.124 131.014ZM102.212 131.955L102.022 131.371C101.913 131.036 101.735 130.761 101.49 130.546C101.246 130.334 100.929 130.292 100.54 130.418C100.161 130.54 99.9376 130.758 99.8683 131.071C99.7965 131.389 99.8151 131.715 99.9242 132.05L100.114 132.634C100.223 132.968 100.396 133.243 100.633 133.457C100.871 133.674 101.185 133.72 101.574 133.594C101.953 133.472 102.182 133.25 102.26 132.93C102.337 132.615 102.321 132.29 102.212 131.955ZM99.9761 122.741L95.9678 136.268L94.7353 136.667L98.7436 123.14L99.9761 122.741Z" fill="#FEFEFE"/>
<path d="M62.5157 132.514C62.5471 132.915 62.6264 133.287 62.7539 133.629C62.8767 133.974 63.049 134.284 63.2706 134.56C63.4885 134.835 63.7553 135.068 64.071 135.261C64.3867 135.454 64.7489 135.6 65.1576 135.699C65.8278 135.86 66.4793 135.834 67.1119 135.62C67.7445 135.406 68.3045 135.002 68.7919 134.406C69.2794 133.811 69.6418 133.023 69.8793 132.044C70.1168 131.065 70.1534 130.199 69.989 129.446C69.8247 128.694 69.5046 128.077 69.0288 127.596C68.553 127.115 67.9652 126.79 67.2656 126.622C66.6174 126.465 66.0132 126.466 65.4528 126.623C64.8878 126.783 64.4056 127.084 64.0062 127.525C63.6023 127.969 63.3163 128.538 63.1485 129.23L62.7501 129.04L66.1527 129.86L65.8581 131.075L61.5496 130.037L61.8442 128.822C62.0701 127.89 62.4654 127.129 63.0301 126.536C63.591 125.943 64.2655 125.54 65.0534 125.329C65.8368 125.12 66.6777 125.124 67.5763 125.341C68.5779 125.582 69.4008 126.03 70.0451 126.684C70.6858 127.337 71.1125 128.149 71.3253 129.12C71.5343 130.09 71.4943 131.171 71.205 132.364C70.988 133.258 70.6733 134.034 70.2607 134.69C69.8436 135.349 69.3529 135.878 68.7887 136.276C68.2245 136.673 67.6078 136.934 66.9388 137.057C66.2697 137.18 65.5724 137.154 64.8469 136.98C64.2504 136.836 63.7162 136.612 63.2444 136.307C62.768 136.005 62.3671 135.642 62.0414 135.216C61.7113 134.794 61.4648 134.324 61.3021 133.805C61.1386 133.29 61.0717 132.746 61.1017 132.173L62.5157 132.514Z" fill="#FEFEFE"/>
<path d="M55.2691 120.261C55.9467 120.663 56.4451 121.177 56.7642 121.802C57.0802 122.426 57.2086 123.112 57.1496 123.861C57.0873 124.608 56.8251 125.368 56.3628 126.142C55.8968 126.923 55.3482 127.52 54.7172 127.934C54.0829 128.346 53.4155 128.562 52.7151 128.583C52.0114 128.601 51.3207 128.409 50.6432 128.007C49.9656 127.605 49.4689 127.093 49.1529 126.469C48.8338 125.844 48.7063 125.156 48.7705 124.405C48.8315 123.653 49.095 122.887 49.5611 122.106C50.0233 121.332 50.5706 120.741 51.203 120.332C51.832 119.921 52.4984 119.707 53.2021 119.688C53.9026 119.668 54.5916 119.859 55.2691 120.261ZM54.6516 121.295C54.1369 120.99 53.6347 120.87 53.1452 120.936C52.6556 121.002 52.2028 121.203 51.7869 121.537C51.3709 121.872 51.0134 122.29 50.7143 122.791C50.4152 123.291 50.2163 123.805 50.1177 124.333C50.019 124.86 50.0562 125.355 50.2292 125.819C50.4022 126.283 50.746 126.668 51.2607 126.973C51.7754 127.279 52.2785 127.397 52.77 127.327C53.2616 127.258 53.7163 127.054 54.1342 126.716C54.5521 126.378 54.9106 125.959 55.2097 125.458C55.5088 124.957 55.7067 124.445 55.8034 123.921C55.9001 123.397 55.861 122.905 55.686 122.444C55.5111 121.983 55.1663 121.6 54.6516 121.295Z" fill="#FEFEFE"/>
<path d="M44.4714 111.62C45.0223 112.184 45.3713 112.808 45.5183 113.495C45.6626 114.179 45.6096 114.875 45.3592 115.583C45.1062 116.288 44.6564 116.955 44.01 117.584C43.3581 118.217 42.6739 118.653 41.9572 118.89C41.238 119.124 40.5373 119.161 39.8552 119C39.1704 118.836 38.5525 118.472 38.0016 117.909C37.4506 117.346 37.103 116.723 36.9587 116.039C36.8117 115.352 36.8661 114.655 37.1219 113.947C37.375 113.236 37.8274 112.564 38.4793 111.93C39.1257 111.302 39.8072 110.872 40.5238 110.64C41.2377 110.406 41.9371 110.37 42.6218 110.534C43.3039 110.695 43.9205 111.057 44.4714 111.62ZM43.6077 112.46C43.1892 112.032 42.7348 111.787 42.2446 111.725C41.7545 111.662 41.2652 111.739 40.7769 111.955C40.2886 112.171 39.8353 112.482 39.417 112.889C38.9987 113.295 38.6738 113.74 38.4424 114.224C38.2109 114.708 38.1189 115.196 38.1664 115.689C38.2138 116.182 38.4468 116.642 38.8653 117.07C39.2838 117.498 39.7395 117.741 40.2324 117.801C40.7253 117.861 41.2173 117.781 41.7083 117.563C42.1994 117.344 42.654 117.032 43.0723 116.625C43.4906 116.219 43.8141 115.775 44.0428 115.294C44.2716 114.812 44.3609 114.327 44.3107 113.837C44.2605 113.347 44.0262 112.888 43.6077 112.46Z" fill="#FEFEFE"/>
<path d="M38.1623 103.046C38.5255 103.676 38.6866 104.324 38.6458 104.989C38.6017 105.656 38.3656 106.293 37.9374 106.901C37.506 107.51 36.8893 108.044 36.0873 108.503C35.2918 108.959 34.523 109.218 33.7809 109.281C33.0389 109.343 32.3684 109.223 31.7697 108.92C31.1709 108.617 30.6881 108.147 30.3212 107.51C30.0375 107.018 29.8955 106.582 29.8953 106.202C29.89 105.821 29.9473 105.496 30.0674 105.226C30.1823 104.955 30.2809 104.74 30.3632 104.579L30.3065 104.481L26.579 106.615L25.9094 105.453L36.0073 99.6709L36.6542 100.793L35.4905 101.46L35.57 101.597C35.7572 101.604 36.0014 101.625 36.3026 101.662C36.6004 101.701 36.9157 101.82 37.2484 102.018C37.5778 102.218 37.8824 102.561 38.1623 103.046ZM37.0263 103.487C36.7577 103.021 36.4091 102.697 35.9805 102.515C35.5487 102.334 35.0675 102.285 34.5372 102.366C34.0036 102.449 33.4508 102.654 32.8788 102.981C32.3134 103.305 31.866 103.671 31.5365 104.077C31.2038 104.486 31.0117 104.919 30.9604 105.376C30.9058 105.835 31.0147 106.301 31.287 106.774C31.5707 107.266 31.9337 107.604 32.3759 107.787C32.813 107.969 33.2941 108.019 33.8193 107.936C34.3393 107.852 34.8655 107.658 35.398 107.353C35.9371 107.044 36.3796 106.682 36.7255 106.265C37.0662 105.848 37.2728 105.402 37.3452 104.928C37.4125 104.453 37.3062 103.973 37.0263 103.487Z" fill="#FEFEFE"/>
<path d="M33.8191 93.2728C33.9019 93.5406 33.877 93.7999 33.7444 94.0506C33.6118 94.3014 33.4116 94.468 33.1437 94.5503C32.8757 94.6326 32.6161 94.6074 32.3649 94.4746C32.1137 94.3418 31.9467 94.1415 31.8639 93.8737C31.781 93.6059 31.8059 93.3466 31.9385 93.0958C32.0711 92.8451 32.2714 92.6785 32.5393 92.5962C32.7167 92.5416 32.8936 92.5368 33.0701 92.5817C33.2454 92.6229 33.4012 92.7038 33.5376 92.8243C33.6693 92.9424 33.7631 93.0919 33.8191 93.2728Z" fill="#FEFEFE"/>
<circle cx="80" cy="80" r="33" fill="#FEFEFE" stroke="#5D5D5D" stroke-width="2"/>
<path d="M81.6195 89.6885C81.6482 86.7513 80.9036 84.3628 79.9564 84.3535C79.0091 84.3443 78.218 86.7178 78.1893 89.6549C78.1605 92.5921 78.9052 94.9806 79.8524 94.9898C80.7996 94.9991 81.5908 92.6256 81.6195 89.6885Z" fill="#5D5D5D"/>
<path d="M76.1262 89.0218C77.7384 86.5665 78.4034 84.1546 77.6116 83.6347C76.8197 83.1147 74.8709 84.6836 73.2587 87.1389C71.6465 89.5942 70.9814 92.0061 71.7733 92.5261C72.5651 93.046 74.5139 91.4771 76.1262 89.0218Z" fill="#5D5D5D"/>
<path d="M71.8588 85.4989C74.5425 84.3052 76.406 82.6358 76.021 81.7703C75.636 80.9047 73.1484 81.1708 70.4646 82.3646C67.7808 83.5584 65.9173 85.2277 66.3023 86.0933C66.6873 86.9588 69.175 86.6927 71.8588 85.4989Z" fill="#5D5D5D"/>
<path d="M75.6993 79.3442C75.8434 78.4079 73.6068 77.2867 70.7037 76.8399C67.8006 76.393 65.3304 76.7898 65.1863 77.7261C65.0422 78.6623 67.2788 79.7835 70.1819 80.2303C73.0849 80.6772 75.5552 80.2804 75.6993 79.3442Z" fill="#5D5D5D"/>
<path d="M76.7413 77.1139C77.3686 76.4042 76.0929 74.2519 73.892 72.3068C71.6911 70.3616 69.3984 69.3602 68.7711 70.07C68.1438 70.7798 69.4194 72.932 71.6204 74.8772C73.8213 76.8224 76.114 77.8238 76.7413 77.1139Z" fill="#5D5D5D"/>
<path d="M78.8166 75.8093C79.7281 75.5513 79.8186 73.0511 79.0189 70.2248C78.2192 67.3985 76.8319 65.3164 75.9204 65.5743C75.0089 65.8323 74.9184 68.3325 75.7181 71.1588C76.5178 73.9851 77.9051 76.0672 78.8166 75.8093Z" fill="#5D5D5D"/>
<path d="M84.4538 71.247C85.3092 68.437 85.268 65.9354 84.3617 65.6596C83.4555 65.3837 82.0274 67.4381 81.1721 70.248C80.3168 73.058 80.358 75.5596 81.2642 75.8354C82.1705 76.1112 83.5985 74.057 84.4538 71.247Z" fill="#5D5D5D"/>
<path d="M88.4811 75.0441C90.7196 73.1423 92.0371 71.0154 91.4237 70.2935C90.8104 69.5716 88.4985 70.528 86.2601 72.4297C84.0216 74.3315 82.7041 76.4584 83.3174 77.1803C83.9307 77.9022 86.2426 76.9458 88.4811 75.0441Z" fill="#5D5D5D"/>
<path d="M89.8125 80.418C92.7238 80.0285 94.9821 78.9516 94.8564 78.0127C94.7309 77.0738 92.2689 76.6284 89.3576 77.0179C86.4463 77.4074 84.188 78.4843 84.3136 79.4232C84.4392 80.3621 86.9011 80.8075 89.8125 80.418Z" fill="#5D5D5D"/>
<path d="M93.5678 86.362C93.9698 85.5043 92.1396 83.7985 89.4798 82.552C86.8202 81.3056 84.3382 80.9905 83.9362 81.8482C83.5342 82.706 85.3644 84.4118 88.0242 85.6583C90.6838 86.9047 93.1658 87.2198 93.5678 86.362Z" fill="#5D5D5D"/>
<path d="M87.9741 92.691C88.776 92.1868 88.1587 89.7622 86.5952 87.2756C85.0318 84.7891 83.1142 83.1821 82.3123 83.6863C81.5103 84.1905 82.1277 86.615 83.6911 89.1016C85.2546 91.5882 87.1722 93.1953 87.9741 92.691Z" fill="#5D5D5D"/>
</svg>
