<svg width="25" height="24" viewBox="0 0 25 24" fill="none" xmlns="http://www.w3.org/2000/svg">
<path d="M3.66699 10.9863V15.4917C3.66699 18.3235 3.66699 19.7395 4.54567 20.6192C5.42435 21.499 6.83856 21.499 9.66699 21.499H15.667C18.4954 21.499 19.9096 21.499 20.7883 20.6192C21.667 19.7395 21.667 18.3235 21.667 15.4917V10.9863" stroke="#FEFEFE" stroke-width="1.5"/>
<path d="M15.667 16.9766C14.9829 17.5838 13.8938 17.9766 12.667 17.9766C11.4402 17.9766 10.3511 17.5838 9.66699 16.9766" stroke="#FEFEFE" stroke-width="1.5" stroke-linecap="round"/>
<path d="M18.4636 2.50269L6.8178 2.53177C5.07963 2.44223 4.63397 3.78234 4.63397 4.43743C4.63397 5.02334 4.55852 5.87749 3.49321 7.48285C2.4279 9.08821 2.50795 9.56511 3.10868 10.6765C3.60725 11.5989 4.87538 11.9592 5.53659 12.0198C7.6368 12.0676 8.65862 10.2515 8.65862 8.97498C9.70048 12.1823 12.6635 12.1823 13.9837 11.8155C15.3065 11.4481 16.4396 10.1329 16.707 8.97498C16.8629 10.414 17.3361 11.2536 18.7342 11.8306C20.1824 12.4282 21.4278 11.5148 22.0527 10.9292C22.6776 10.3437 23.0786 9.04376 21.9647 7.61505C21.1965 6.62976 20.8763 5.70155 20.7712 4.73952C20.7102 4.18209 20.6567 3.58311 20.2651 3.20194C19.6927 2.6449 18.8715 2.47588 18.4636 2.50269Z" stroke="#FEFEFE" stroke-width="1.5" stroke-linecap="round" stroke-linejoin="round"/>
</svg>
